<?xml version="1.0" standalone="no"?>
<!-- Generator: Paintmaps.com , Online SVG vector map maker -->
<svg xmlns="http://www.w3.org/2000/svg" id="map" version="1.1" x="0px" y="0px"  width="auto" height="auto" xml:space="preserve">
<style>
        @import url('../styles.css');
</style>
<path d="M 425.304 370.9219 L 425.2914 371.0019 L 383.9741 370.1014 L 362.2461 369.4725 L 349.9526 369.0685 L 350.7492 344.9369 L 350.3185 344.5148 L 350.7008 334.5982 L 351.1761 334.1489 L 351.975 308.2244 L 352.1606 302.1304 L 353.2137 266.9631 L 360.1666 267.0447 L 394.3047 267.2823 L 394.1373 274.5799 L 394.3249 274.5814 L 440.8361 274.4846 L 441.0457 283.6802 L 447.7173 283.6324 L 498.3159 282.9377 L 498.08 283.7551 L 497.9687 284.551 L 497.7328 285.5869 L 497.7328 286.7156 L 497.6775 287.1783 L 497.4416 287.8814 L 497.2472 288.788 L 497.1641 289.5836 L 497.0528 290.1203 L 496.9003 291.3783 L 496.9003 292.0074 L 496.8032 292.6737 L 496.8447 293.6542 L 496.706 294.598 L 496.5394 295.079 L 496.151 295.6339 L 496.3176 296.9293 L 496.0675 298.1688 L 496.345 298.7979 L 496.3728 299.8895 L 496.0954 301.4624 L 496.0954 302.7021 L 495.9288 303.4052 L 495.8873 303.9048 L 495.6651 304.7928 L 495.6792 305.0889 L 495.3739 305.9215 L 494.8326 307.1056 L 494.8326 307.3092 L 494.5689 307.8087 L 494.3608 308.4193 L 494.1527 308.5489 L 493.8611 309.3076 L 493.7224 309.4001 L 493.4864 310.0847 L 492.9593 311.1209 L 492.6125 312.2864 L 492.0293 313.4522 L 491.0581 315.0805 L 490.5585 315.6725 L 490.2394 316.4495 L 489.3373 317.6153 L 488.671 318.2259 L 487.7136 319.1697 L 486.2912 320.4091 L 485.6527 320.7608 L 484.3206 321.5935 L 483.71 322.2041 L 483.0716 322.759 L 482.3223 323.2771 L 482.0726 323.3696 L 481.462 323.7767 L 479.8799 324.739 L 477.1048 325.9416 L 475.9945 326.4597 L 474.6346 327.1442 L 473.4134 327.4959 L 472.2475 327.7734 L 470.2217 328.0323 L 469.1949 327.9584 L 467.8902 327.9955 L 466.3915 328.1065 L 465.6422 328.199 L 464.8094 328.0509 L 464.1157 328.9575 L 464.3932 329.3092 L 464.4488 330.1047 L 464.3101 330.6043 L 464.0048 330.9928 L 462.9502 331.6773 L 462.0895 332.325 L 461.0349 332.7135 L 459.314 333.2873 L 458.9535 333.5277 L 456.9551 334.1568 L 455.7618 334.5639 L 455.3452 334.8228 L 454.4293 335.1745 L 453.0419 335.6369 L 452.3757 335.9886 L 451.4598 336.3217 L 451.2376 336.3217 L 450.7104 336.5992 L 449.8776 336.8767 L 448.7121 337.3762 L 448.1015 337.7279 L 447.8793 337.7279 L 446.9359 338.0979 L 446.7137 338.0979 L 445.6035 338.5606 L 445.6313 338.8381 L 444.9376 339.0416 L 444.0217 339.0787 L 443.522 339.208 L 442.8836 339.6336 L 442.079 340.0963 L 442.079 340.3553 L 441.274 340.7809 L 440.0807 341.1508 L 439.4422 341.3915 L 438.9147 341.669 L 438.1376 342.3349 L 438.4429 343.0012 L 438.1376 343.1862 L 437.9436 343.5193 L 438.1376 343.6118 L 438.1376 344.0559 L 437.8048 343.8524 L 437.527 344.0742 L 437.1664 344.0374 L 436.8611 344.1853 L 436.6389 344.5184 L 435.9174 345.2215 L 435.973 345.5914 L 435.7787 345.6656 L 435.3346 346.1096 L 434.9459 346.3873 L 434.0025 347.5157 L 433.475 348.3116 L 433.1141 348.7186 L 433.031 348.9961 L 432.5313 349.8842 L 432.2538 350.6244 L 431.9207 351.2349 L 431.1714 352.1416 L 430.8382 352.6597 L 430.4777 353.0111 L 430.3389 353.3442 L 430.2277 354.0473 L 429.9502 354.5468 L 429.7005 355.3424 L 428.7846 356.7857 L 428.5072 357.1559 L 428.5624 357.4334 L 428.2571 357.6555 L 428.2571 358.229 L 428.174 358.6175 L 428.174 359.2466 L 427.6465 360.9674 L 427.5913 361.4484 L 426.8141 363.4469 L 426.8141 363.6318 L 426.1757 364.4828 L 425.8704 365.3894 L 425.8704 365.9817 L 425.7317 366.8698 L 425.2598 367.9243 L 425.1489 368.4056 L 425.1489 369.6453 L 425.2876 370.4409 L 425.304 370.9219 Z" fill="#000" fill-opacity="1" stroke="#000" stroke-width="0" paint-order="fill" stroke-opacity="1" stroke-dasharray="" stroke-linecap="butt" stroke-linejoin="miter" stroke-miterlimit="10" clip-path="none" style="filter: url(#f1)"/>
<path d="M 538.5177 225.2309 L 538.0679 225.4324 L 523.5104 219.0043 L 519.7721 214.1892 L 504.4676 194.2984 L 502.7536 194.2565 L 501.3193 192.8783 L 472.8725 216.3846 L 465.3845 212.0583 L 448.9911 213.3834 L 432.5058 214.6519 L 414.4326 215.9688 L 395.4954 208.2268 L 396.755 140.2298 L 396.8355 135.7948 L 397.881 130.9065 L 398.7679 86.377 L 399.0846 70.0332 L 399.3968 53.8947 L 408.9437 53.9511 L 413.1157 53.9743 L 419.2651 53.9918 L 429.5805 54.0121 L 440.4934 54.0017 L 445.058 53.9837 L 449.1493 53.974 L 455.3783 53.9435 L 460.5379 53.9115 L 467.7313 53.8546 L 476.0162 53.7723 L 486.3323 53.6566 L 493.1038 53.5609 L 502.5897 53.4145 L 502.6595 54.1542 L 503.0616 54.4131 L 502.6869 54.672 L 502.9369 55.1718 L 502.5897 55.2643 L 502.2985 55.7453 L 502.451 56.0042 L 502.2695 56.1303 L 502.2429 56.467 L 500.9664 56.763 L 500.8414 57.059 L 500.8692 57.6325 L 501.5351 57.725 L 501.4657 58.2431 L 500.9096 58.6143 L 500.772 59.0204 L 500.772 59.7974 L 500.8692 60.2784 L 500.7857 60.5744 L 500.8524 60.8522 L 500.7442 61.185 L 500.7164 61.8142 L 500.7305 63.461 L 500.7998 64.6082 L 501.1051 67.0135 L 501.3411 68.3643 L 501.6044 69.5669 L 501.9238 70.7139 L 502.4929 73.138 L 502.8535 74.1 L 503.3116 75.5619 L 503.8246 76.8931 L 504.213 77.6711 L 504.4215 78.2263 L 504.7577 78.7266 L 504.7546 78.9109 L 505.0565 79.556 L 505.0599 79.8543 L 505.4323 80.3196 L 505.7262 81.0941 L 506.4309 82.3153 L 506.4618 82.7213 L 507.1665 83.7395 L 507.4867 84.3656 L 507.4592 84.9795 L 507.8625 85.4793 L 507.9742 85.942 L 508.2737 86.2563 L 508.8763 87.2925 L 509.0844 87.977 L 509.3063 88.2733 L 509.6672 88.9947 L 510.014 89.8645 L 510.5694 90.7525 L 511.0428 91.233 L 511.1659 91.4742 L 511.9015 92.0477 L 512.1096 92.6029 L 512.3455 92.9914 L 513.1086 93.8055 L 513.7333 94.1755 L 514.5798 94.8971 L 515.2182 95.1932 L 516.3003 95.5634 L 517.4666 95.7898 L 517.9209 95.9687 L 518.3406 96.3589 L 518.9927 96.3589 L 519.2839 96.4885 L 519.6448 96.8214 L 519.8792 97.247 L 520.1445 97.9316 L 520.5886 98.4497 L 521.1351 98.6532 L 521.6577 98.9482 L 522.2538 99.523 L 522.7809 99.745 L 523.1834 99.7052 L 523.3641 99.3563 L 523.9747 99.5415 L 524.5159 99.819 L 524.6683 100.0225 L 524.6405 100.3 L 525.0015 100.4296 L 525.0293 100.1336 L 525.3899 100.3739 L 525.487 100.7071 L 525.8335 101.1848 L 525.8202 101.6137 L 526.2227 102.2799 L 526.7113 102.6128 L 527.0414 103.2419 L 527.3329 103.6304 L 527.6382 103.7971 L 528.1932 104.9441 L 528.8175 105.5918 L 529.4559 106.0146 L 529.8169 106.7759 L 530.4164 107.4986 L 531.1905 108.1267 L 532.0759 108.5709 L 532.5226 108.9037 L 532.717 109.3664 L 533.0082 109.8119 L 533.5635 110.1991 L 534.1463 110.1991 L 534.3963 110.347 L 534.5766 110.7355 L 535.1041 111.1797 L 535.09 111.4571 L 535.2703 111.7717 L 535.8393 112.2527 L 536.0753 112.734 L 536.7667 113.6035 L 536.9355 114.0291 L 537.1714 114.3066 L 537.5187 114.4916 L 537.8514 115.2689 L 538.2539 115.6945 L 538.8923 115.8053 L 539.1004 115.7128 L 539.3078 116.0273 L 539.2392 116.564 L 539.5723 117.0821 L 539.9328 117.4714 L 540.7374 118.1582 L 540.8769 118.3587 L 541.3625 118.6918 L 541.8172 119.0976 L 542.3173 119.6909 L 542.3752 119.988 L 542.6531 120.283 L 543.694 121.0231 L 544.6652 121.5783 L 546.0945 122.2443 L 546.7885 122.5033 L 547.4963 122.5404 L 548.5788 122.1333 L 549.0499 122.1549 L 549.3548 122.3541 L 549.564 122.781 L 550.0774 123.151 L 550.7852 123.2991 L 551.4789 123.2249 L 551.9679 122.968 L 552.4779 122.9474 L 553.0191 123.262 L 553.6297 123.2066 L 553.9346 123.4274 L 554.5041 123.4655 L 555.1288 123.373 L 555.3228 123.2434 L 555.9475 123.151 L 556.5439 122.9474 L 557.3767 123.0214 L 558.4314 123.2805 L 559.2501 123.373 L 560.0966 123.7245 L 560.8745 123.8014 L 561.2069 123.9836 L 561.9006 124.039 L 562.5249 124.2611 L 563.5105 124.5203 L 564.7317 124.7792 L 565.6888 124.8377 L 565.8832 124.9642 L 566.8684 125.0198 L 567.3266 124.9113 L 567.7843 125.0567 L 568.0481 125.2788 L 568.8668 125.4084 L 569.658 125.4114 L 570.8099 125.7044 L 571.4063 125.944 L 572.3085 126.0375 L 573.03 126.0375 L 573.9459 125.6304 L 574.3069 125.6119 L 575.0977 125.7598 L 576.1524 125.7044 L 576.2911 125.7969 L 576.9989 125.8708 L 577.7204 125.5933 L 578.3173 125.2417 L 578.7891 125.0938 L 579.3163 125.0752 L 580.0797 124.9456 L 581.259 125.1309 L 581.8421 125.0198 L 582.1611 125.0381 L 582.5636 125.2234 L 583.2714 124.9456 L 583.5352 125.1309 L 583.9514 125.1492 L 584.3539 125.3527 L 584.7838 125.3344 L 585.1726 125.4823 L 585.2278 125.7229 L 585.8137 125.9237 L 586.13 126.2039 L 586.449 126.2964 L 587.254 126.7035 L 588.3921 126.611 L 588.4615 126.8331 L 588.8083 127.2955 L 589.2661 127.3697 L 589.4746 127.6101 L 589.4052 127.8693 L 589.4326 128.4242 L 589.7257 129.0867 L 590.0852 129.59 L 590.5155 129.9933 L 591.556 130.6445 L 592.0557 131.3476 L 592.9022 132.1064 L 593.485 132.6799 L 593.6653 132.7541 L 594.5396 133.4754 L 595.1917 133.7173 L 594.9821 133.9567 L 594.734 133.9381 L 594.2621 134.4006 L 594.1371 135.3629 L 594.3868 136.0845 L 594.7168 136.6395 L 594.7199 137.2132 L 594.9143 137.9163 L 595.2306 138.4908 L 595.3697 138.9131 L 595.4277 139.4703 L 595.5352 139.711 L 595.8302 140.9136 L 595.8161 141.1166 L 596.0939 142.0238 L 596.065 143.4503 L 595.9948 143.5763 L 595.9826 144.3691 L 595.7886 145.1507 L 595.733 145.7613 L 595.7463 147.9447 L 595.6221 148.6478 L 595.5527 149.7356 L 595.4414 150.6097 L 595.1502 151.8118 L 595.0923 153.8662 L 595.0511 154.2154 L 594.7199 154.7906 L 594.5953 155.1591 L 594.3174 156.3635 L 594.2507 156.9942 L 594.0819 157.7516 L 593.6931 159.0094 L 593.3878 159.435 L 593.0962 160.101 L 592.9575 160.7855 L 592.3469 162.8026 L 591.9722 163.5981 L 591.5735 164.6725 L 591.3894 164.9672 L 591.0841 165.7074 L 590.921 166.4085 L 590.6123 167.095 L 590.4042 167.7798 L 590.2792 167.9463 L 589.7658 169.1674 L 589.9323 169.7041 L 589.4746 169.8334 L 589.3774 170.1859 L 588.0731 170.3277 L 587.7121 170.5182 L 587.1015 170.7218 L 587.1568 171.2582 L 587.7815 171.4802 L 587.7815 172.4979 L 588.0609 172.9784 L 588.0727 173.497 L 588.2949 173.6637 L 588.2671 174.0708 L 588.503 174.5518 L 588.7378 175.2145 L 588.8476 175.7877 L 588.864 176.8646 L 589.0164 177.4566 L 589.0301 178.1414 L 589.305 178.4743 L 589.7658 179.5844 L 589.9049 179.7679 L 590.2933 179.6955 L 590.7373 180.2875 L 591.0148 180.3985 L 591.5419 180.2875 L 591.9863 180.3432 L 592.3747 180.2692 L 592.6522 180.3617 L 592.8466 180.6392 L 593.4015 180.7871 L 593.5543 181.0091 L 593.8596 181.0462 L 593.6374 181.4162 L 593.2079 181.4713 L 593.0825 181.6383 L 592.6106 181.5829 L 592.3469 182.1378 L 592.6663 182.4524 L 592.3053 182.7113 L 592.6106 182.8224 L 592.6522 183.174 L 593.679 183.0816 L 593.8455 183.4147 L 593.485 183.6551 L 593.1378 183.4886 L 592.5275 183.6365 L 592.0557 183.5255 L 591.8891 184.1361 L 591.4588 184.1917 L 591.3479 183.9473 L 590.3905 184.4506 L 590.3626 184.2103 L 589.8908 184.1178 L 590.0017 183.9325 L 590.0017 183.5255 L 590.2349 183.1911 L 590.1122 182.7876 L 589.186 182.5446 L 588.9749 182.767 L 588.6833 182.8409 L 588.5308 182.5449 L 588.2957 182.4105 L 587.5029 182.3373 L 587.3234 182.2118 L 586.9487 182.2118 L 586.3244 182.4339 L 585.9497 182.6745 L 585.3807 183.1555 L 584.8116 184.0253 L 584.4648 185.0612 L 584.4785 185.4868 L 584.6313 185.6904 L 585.006 185.5979 L 585.0891 186.0004 L 585.6166 185.9125 L 585.7832 186.2641 L 585.6444 186.5601 L 585.3113 186.6526 L 585.3529 186.9301 L 584.881 186.893 L 584.881 187.3372 L 585.4638 187.5219 L 585.2972 187.8367 L 584.7007 187.8921 L 584.4232 187.7071 L 584.326 188.0774 L 584.9645 188.5769 L 585.0453 188.8336 L 584.7701 188.8915 L 584.2704 189.2061 L 584.2289 189.4835 L 583.8264 189.761 L 583.5489 189.7239 L 583.4517 189.9831 L 583.8957 190.9083 L 584.2426 191.3707 L 584.6992 191.3557 L 584.7282 191.6139 L 585.0338 191.8149 L 585.6581 191.8334 L 586.13 191.9813 L 586.4216 192.1848 L 586.9628 192.8694 L 587.4484 193.5727 L 587.2956 193.6835 L 586.8934 193.4246 L 586.6991 193.6467 L 586.4353 193.4617 L 586.255 193.8131 L 586.4075 193.9427 L 585.9634 194.3683 L 585.8804 194.5533 L 585.45 194.4976 L 585.0605 194.2534 L 585.006 194.5533 L 585.2004 194.8493 L 584.6729 194.8679 L 584.6592 194.5347 L 584.8654 194.2941 L 584.5204 193.7392 L 583.8126 193.5171 L 583.3823 193.5727 L 582.9661 193.4617 L 582.5221 193.7763 L 582.6608 194.0537 L 582.3833 194.1462 L 582.2999 193.8316 L 581.9252 193.887 L 581.8002 193.6835 L 581.4255 193.7577 L 581.259 194.0906 L 580.3278 193.7577 L 579.8891 193.7577 L 579.4135 193.9056 L 579.2054 194.0723 L 579.0666 194.7937 L 578.8585 194.7197 L 578.9001 194.3498 L 578.4976 194.1091 L 577.8614 194.1681 L 577.4986 194.4237 L 577.0565 194.4933 L 577.0412 194.6478 L 576.4439 194.7939 L 575.958 195.0528 L 575.6946 195.4043 L 575.6249 195.682 L 575.7777 195.9595 L 575.1671 196.1444 L 575.3893 196.644 L 575.1808 196.8846 L 575.1256 197.5692 L 574.4593 198.1058 L 574.239 198.0913 L 573.8487 198.8231 L 574.2649 198.735 L 574.364 199.2541 L 573.8628 199.7155 L 573.4462 199.7895 L 573.0716 199.697 L 572.7693 199.8273 L 572.2944 199.7526 L 572.0448 199.8637 L 571.8226 200.1965 L 570.8792 200.0855 L 570.1714 200.5667 L 569.7411 201.2327 L 569.2834 201.4177 L 569.1862 201.6213 L 569.3108 202.0654 L 568.9361 202.2504 L 568.9396 202.6384 L 568.6728 202.8239 L 568.159 202.9349 L 568.2009 203.1756 L 568.0065 203.453 L 567.5068 203.4716 L 567.2156 203.5826 L 566.8269 203.9157 L 566.7442 204.21 L 566.161 204.6003 L 565.7806 204.6928 L 565.2173 205.248 L 564.9673 205.655 L 564.912 206.4875 L 564.317 206.9827 L 564.107 207.5793 L 564.107 208.2824 L 564.3151 208.9113 L 564.5652 209.263 L 564.662 209.6515 L 565.0092 209.9107 L 565.3419 209.855 L 565.4117 210.2799 L 565.356 210.8912 L 565.1479 210.9652 L 564.4817 210.5767 L 564.232 210.8912 L 563.9405 210.8541 L 563.9405 210.5213 L 563.5521 210.3177 L 562.4833 210.0956 L 561.1097 210.04 L 560.4995 210.0807 L 559.6526 210.2621 L 559.042 210.5396 L 558.681 210.7802 L 558.3205 211.2243 L 558.2511 211.7607 L 558.7367 212.1864 L 558.7645 212.5195 L 558.4592 212.7601 L 558.3342 213.2411 L 558.681 213.5371 L 557.7792 213.8886 L 557.3767 214.2402 L 557.3905 214.6287 L 556.3637 214.4809 L 555.4199 214.5548 L 555.0037 215.0173 L 554.6843 214.9433 L 553.4357 214.9619 L 552.3948 215.0729 L 550.2299 215.4429 L 549.1337 215.7203 L 548.4953 216.1091 L 547.8988 216.5901 L 547.8431 216.9415 L 547.2185 217.0157 L 546.3026 217.3118 L 545.262 217.7742 L 545.0398 217.9963 L 544.332 218.4219 L 544.3599 218.8475 L 543.9715 219.1435 L 543.6105 219.606 L 543.5553 220.0331 L 543.2915 220.0316 L 542.6115 220.2722 L 542.0288 220.6237 L 541.9175 220.8828 L 541.3904 220.9936 L 540.9044 221.3082 L 540.4878 221.7285 L 540.0998 222.2334 L 539.9332 223.2142 L 539.3383 223.6799 L 538.9758 224.2133 L 538.948 224.3983 L 538.462 225.0274 L 538.5177 225.2309 Z M 588.0312 170.9436 L 588.3227 171.2028 L 587.5178 171.1657 L 588.0312 170.9436 Z M 596.259 180.4395 L 596.3851 180.5835 L 596.5101 181.1202 L 596.1076 181.2127 L 595.6773 180.8613 L 595.9967 180.7845 L 596.259 180.4395 Z" fill="#000" fill-opacity="1" stroke="#000" stroke-width="0" paint-order="fill" stroke-opacity="1" stroke-dasharray="" stroke-linecap="butt" stroke-linejoin="miter" stroke-miterlimit="10" clip-path="none" style="filter: url(#f1)"/>
<path d="M 267.6572 365.4403 L 307.2773 367.3971 L 349.9526 369.0685 L 362.2461 369.4725 L 383.9741 370.1014 L 425.2914 371.0019 L 425.304 370.9219 L 425.3707 371.6804 L 425.6482 373.0312 L 425.676 375.3071 L 425.7869 376.6762 L 425.7595 378.5265 L 425.5929 379.7848 L 425.2042 380.3212 L 424.2052 381.2649 L 423.8442 381.4313 L 423.4837 381.3206 L 423.1784 381.5241 L 422.5952 382.0605 L 422.2899 382.264 L 422.0403 382.5971 L 421.8184 382.6525 L 421.374 383.0596 L 421.374 383.3002 L 421.0687 383.9294 L 421.0413 384.5214 L 420.93 384.947 L 420.2641 385.4837 L 419.6813 385.2802 L 419.8479 384.7621 L 420.1807 384.7064 L 420.5694 384.7804 L 420.7634 384.5954 L 420.5416 384.355 L 420.0976 384.355 L 419.4035 384.466 L 418.9873 385.1691 L 418.7655 385.3727 L 417.7108 385.8166 L 417.1833 386.3161 L 416.9337 386.4272 L 416.7671 386.7417 L 416.434 386.9267 L 416.2952 387.2227 L 415.4624 388.074 L 415.3237 388.5921 L 414.7688 389.2027 L 413.8529 389.9428 L 412.8535 390.9605 L 412.5482 391.8115 L 412.3542 392.0521 L 411.9102 392.3296 L 411.1052 392.2185 L 411.3827 392.5888 L 412.0489 392.6441 L 412.6039 392.1817 L 413.0201 391.9782 L 413.2979 391.423 L 413.825 390.7938 L 414.0194 390.8124 L 414.3247 390.5349 L 415.6012 389.6283 L 416.4896 389.0362 L 416.9337 388.37 L 417.683 387.6298 L 418.4045 387.4819 L 420.2641 386.3903 L 420.5694 386.2607 L 421.735 385.502 L 421.9572 385.2802 L 421.8737 384.947 L 422.5399 384.8545 L 422.7618 385.0024 L 423.3171 385.0024 L 423.872 385.2245 L 424.4548 386.2793 L 424.5105 387.3894 L 424.677 388.555 L 424.8158 389.2581 L 425.232 390.3314 L 425.3154 391.719 L 425.4264 391.8671 L 425.7873 393.6433 L 425.9813 394.2724 L 426.0091 394.698 L 426.1757 394.8645 L 426.2313 395.7342 L 426.5919 396.7702 L 426.5919 397.0479 L 427.1194 398.6945 L 427.7578 400.0081 L 428.2019 401.3775 L 428.3684 401.4885 L 428.3406 401.951 L 428.5346 402.3951 L 428.6181 402.9872 L 428.8125 403.5978 L 428.8677 404.0234 L 429.0343 404.2455 L 429.3952 405.8923 L 429.6727 406.5397 L 429.7558 407.3909 L 430.2555 408.7232 L 430.3664 409.3152 L 430.6995 410.1293 L 430.8661 411.2766 L 431.2823 412.7011 L 431.3379 413.0713 L 431.6711 413.8669 L 431.7267 414.4589 L 431.9764 414.9956 L 432.1429 415.5505 L 432.3926 416.6792 L 433.2528 418.7331 L 433.7247 419.6397 L 433.8634 420.1024 L 434.198 420.7298 L 434.28 421.2126 L 434.4466 421.6379 L 434.6962 421.8046 L 434.5853 422.0081 L 434.9184 423.3958 L 434.8349 423.6549 L 434.5296 424.0249 L 434.4187 424.4874 L 434.2243 424.7834 L 433.6972 425.209 L 433.1419 425.394 L 432.9475 424.7651 L 432.4482 424.1913 L 432.1151 424.062 L 431.227 423.9139 L 430.8382 423.9139 L 429.9224 424.0988 L 429.3674 424.3209 L 428.7012 424.7834 L 427.9518 425.801 L 427.48 426.1713 L 426.4532 426.6152 L 425.8426 426.7448 L 425.7038 427.0408 L 425.0654 427.0039 L 423.4837 426.4302 L 422.2899 426.1342 L 421.374 425.7271 L 420.5972 425.4867 L 419.9588 425.024 L 419.9866 424.913 L 419.5701 424.5616 L 419.0151 424.432 L 418.6542 424.1913 L 417.877 423.9878 L 417.7383 423.8399 L 416.9337 423.8214 L 416.1287 423.4143 L 414.8519 423.3772 L 414.38 423.5624 L 413.9638 423.5807 L 413.5197 423.7103 L 412.7148 423.7474 L 411.8823 424.2099 L 411.5214 424.5059 L 410.883 424.728 L 410.2724 424.7094 L 409.6896 425.0611 L 409.329 425.0426 L 408.7737 425.2646 L 408.5241 425.2646 L 408.1909 425.505 L 407.6082 425.5607 L 407.1363 425.8752 L 406.7201 425.8752 L 406.1373 426.3191 L 406.0539 426.5227 L 405.582 426.5044 L 405.2489 426.7448 L 404.6383 426.8743 L 404.4165 427.1889 L 403.9168 427.2258 L 403.695 427.4293 L 404.5274 427.4293 L 404.7218 427.1333 L 405.6098 427.0964 L 406.4426 426.8004 L 407.386 426.6337 L 408.1631 426.6152 L 409.3565 427.0039 L 409.9671 426.8004 L 410.5224 426.7262 L 410.9386 426.5227 L 411.8823 426.2081 L 413.2979 425.8196 L 413.6028 425.8381 L 414.1303 425.6532 L 415.4903 425.5975 L 416.4618 425.8752 L 416.8502 426.1156 L 417.6274 426.2637 L 418.7376 426.5969 L 419.0151 426.5227 L 419.5701 426.5969 L 420.1254 426.8004 L 421.0413 427.2814 L 421.3188 427.3 L 421.624 427.522 L 422.429 427.6885 L 422.8731 427.9474 L 423.2893 428.0216 L 424.233 428.6322 L 425.3985 428.8911 L 426.1757 428.9836 L 425.9813 429.2982 L 425.4264 429.5388 L 424.7879 429.6681 L 424.4826 429.9459 L 424.4826 430.3158 L 423.6224 431.056 L 421.5684 431.7406 L 421.3466 432.018 L 421.2078 432.4251 L 421.374 432.6286 L 421.7906 432.203 L 423.5389 432.2216 L 424.0386 432.1847 L 424.5383 432.0551 L 425.0932 431.722 L 425.3707 431.1114 L 426.5366 430.7783 L 426.8694 430.4269 L 426.8694 430.1862 L 427.2303 429.5942 L 427.7022 429.2057 L 428.0353 429.0761 L 428.5624 428.6876 L 429.0343 428.2434 L 429.2843 428.262 L 429.7284 427.8549 L 429.8949 427.8549 L 430.4777 427.5589 L 430.783 427.5774 L 431.5601 426.9854 L 432.0594 427.1704 L 432.8922 427.3739 L 433.3919 427.596 L 433.9747 427.9659 L 434.4466 428.4655 L 434.8628 429.5571 L 435.1124 429.8348 L 435.2512 430.2048 L 435.3624 430.9264 L 436.2227 432.7582 L 437.4995 434.8675 L 438.6373 436.6439 L 439.6366 438.309 L 440.0528 439.1416 L 440.8022 440.5293 L 441.1631 441.2695 L 441.1631 441.4359 L 441.5793 442.0836 L 442.1343 443.2677 L 443.0502 445.0441 L 443.9108 446.9313 L 444.7989 448.6891 L 445.3538 449.5032 L 445.576 450.0213 L 445.7422 450.1692 L 446.4363 451.3165 L 446.4641 451.4461 L 447.6853 453.1853 L 447.7684 453.3889 L 448.3511 454.1105 L 448.629 454.573 L 449.5171 455.6277 L 450.1555 456.6083 L 450.4051 456.8489 L 450.6548 457.367 L 451.0988 457.8295 L 452.2091 459.3096 L 453.9021 461.5116 L 454.2631 462.048 L 454.7624 462.6403 L 455.2342 463.0657 L 455.623 463.5838 L 455.9005 463.8058 L 456.2058 464.25 L 456.5389 464.5275 L 457.0939 465.3787 L 457.5379 465.8043 L 458.0098 466.4332 L 459.314 467.969 L 459.6472 468.3021 L 460.2577 469.1348 L 460.5352 469.3569 L 461.4511 470.6149 L 462.0617 471.3551 L 462.173 471.5955 L 462.7836 472.2802 L 463.2829 472.9462 L 463.3386 473.1312 L 463.8104 473.7604 L 464.4488 474.5005 L 464.5597 474.7041 L 464.5041 475.5921 L 464.2823 475.8328 L 463.3919 476.4761 L 462.5336 477.461 L 461.923 478.5526 L 461.4789 479.0707 L 460.674 479.6999 L 460.3797 479.4778 L 460.9392 478.4518 L 460.8786 476.607 L 460.9122 475.7693 L 460.8234 475.5243 L 459.7455 475.2976 L 457.2105 475.2039 L 454.5646 475.0771 L 454.3767 475.1503 L 453.619 474.7895 L 452.894 473.7736 L 451.3561 473.3248 L 449.1077 473.0021 L 446.7675 472.6312 L 443.2388 472.1026 L 442.8131 471.989 L 440.9744 471.7451 L 439.9431 471.2857 L 438.6605 470.4101 L 437.8022 469.755 L 435.234 468.2914 L 433.6016 467.4082 L 432.7017 466.9648 L 431.9992 466.8141 L 430.94 466.7635 L 429.2451 466.1974 L 429.1002 466.0574 L 427.5371 465.4476 L 426.7257 465.2179 L 426.3049 464.9808 L 424.7247 464.3542 L 422.7065 463.4892 L 421.2486 463.1686 L 417.9757 463.2651 L 415.7258 463.3065 L 413.2892 463.3729 L 411.7802 463.4903 L 409.6808 463.4709 L 408.0057 463.0189 L 406.4666 462.4172 L 403.9366 461.5154 L 401.4645 460.5681 L 398.4443 459.4524 L 397.8752 459.2844 L 395.2808 458.2541 L 394.7125 458.0861 L 387.7364 455.4501 L 387.1536 455.2047 L 384.7066 454.3547 L 383.304 453.7944 L 381.2599 453.0923 L 374.4195 453.1991 L 372.5862 453.1856 L 370.6953 453.2153 L 369.9685 453.3137 L 369.5268 453.2377 L 368.4512 453.2631 L 366.8233 453.2085 L 364.4122 453.2636 L 360.2805 453.257 L 359.8891 453.3043 L 358.8173 453.2509 L 357.202 453.3002 L 357.0377 453.2639 L 355.1496 453.2257 L 352.3146 453.2288 L 350.9444 453.2082 L 350.5156 453.2532 L 347.4432 453.1828 L 344.2728 453.2133 L 340.0295 453.1988 L 338.9406 453.1249 L 338.0117 453.1637 L 335.2305 453.1884 L 333.6567 453.1541 L 332.8819 453.0916 L 332.0971 453.1963 L 328.5955 453.1711 L 323.5693 453.2143 L 321.0679 453.1963 L 316.5231 453.2377 L 314.4306 453.2031 L 313.2978 453.2278 L 312.0965 453.1724 L 311.6284 453.2423 L 310.6466 453.2275 L 304.3043 453.2484 L 300.1895 453.2171 L 299.8514 453.2771 L 299.298 453.2344 L 295.8303 453.2311 L 292.4781 453.1691 L 291.5866 453.1851 L 288.3816 453.1432 L 286.7682 453.1361 L 286.2521 453.0939 L 285.7292 452.8987 L 285.2939 452.5247 L 283.5082 450.4307 L 283.2197 449.8506 L 283.2075 449.2844 L 283.307 448.9539 L 284.229 448.2851 L 284.9951 447.2258 L 285.143 446.5008 L 284.949 445.4064 L 284.5434 444.4231 L 283.9511 443.7045 L 283.0105 442.9526 L 281.9215 441.7342 L 280.4789 440.3285 L 278.7195 438.7374 L 276.9541 437.2519 L 276.4197 436.7643 L 275.9962 436.5272 L 274.897 435.734 L 273.5253 434.8947 L 272.9722 434.6655 L 271.2079 434.14 L 269.261 433.8168 L 268.3634 433.522 L 267.6556 433.1615 L 267.4605 432.8446 L 267.1422 431.5589 L 265.2098 426.4076 L 265.0577 426.246 L 264.4582 425.9362 L 262.8875 426.0295 L 262.1427 426.1387 L 261.3507 426.154 L 260.8777 425.6526 L 260.5758 425.085 L 260.4398 424.512 L 260.832 423.1292 L 261.1579 422.3082 L 261.7166 421.7756 L 261.9651 421.4387 L 262.671 420.8992 L 263.6715 420.3461 L 264.2893 419.7553 L 264.8153 418.9455 L 264.9499 418.4188 L 264.9746 417.6717 L 264.7734 415.8882 L 264.9266 415.362 L 265.7488 414.0501 L 265.8021 413.6255 L 266.0072 413.133 L 265.8608 410.8944 L 265.9329 410.6848 L 265.8227 409.1206 L 265.9565 408.6086 L 266.0148 407.894 L 266.2641 406.8545 L 266.6776 406.2671 L 268.7061 404.6723 L 269.1478 403.9492 L 269.3094 403.5304 L 269.3068 402.2018 L 269.0624 401.8364 L 268.1858 401.1752 L 267.9392 401.0695 L 266.6193 400.7036 L 266.2324 400.5285 L 265.0055 399.4801 L 264.095 398.8009 L 263.8049 398.341 L 262.7335 396.308 L 262.227 394.5062 L 262.3752 393.8122 L 262.2925 393.2728 L 262.5925 392.7252 L 263.5019 392.0605 L 264.1441 391.7619 L 264.5501 391.2507 L 264.9682 390.3585 L 265.2315 389.5797 L 265.5033 389.3663 L 265.8749 389.2654 L 267.2333 389.3134 L 267.7334 389.4186 L 268.4233 389.4275 L 269.0838 389.3432 L 269.5149 388.9557 L 269.803 388.2999 L 269.8994 386.8695 L 270.1731 384.3497 L 270.4273 381.3859 L 270.5405 380.6442 L 270.6796 378.6663 L 270.6354 378.0834 L 270.7787 376.9613 L 268.3668 373.4171 L 268.0055 372.9686 L 267.2348 371.7632 L 267.0976 371.4499 L 266.4905 370.6965 L 266.1208 370.1253 L 265.9828 369.598 L 266.2389 368.4371 L 266.4954 367.7185 L 267.6572 365.4403 Z M 430.5608 424.8019 L 430.9495 425.098 L 431.0048 425.4311 L 430.7552 425.6903 L 430.2002 425.5792 L 429.8393 425.3757 L 430.5608 424.8019 Z M 431.5876 425.2832 L 431.9764 425.4311 L 431.6154 425.6346 L 431.5876 425.2832 Z M 426.2866 429.4646 L 426.2866 429.6867 L 425.9813 429.9273 L 425.676 429.7977 L 425.8704 429.5388 L 426.2866 429.4646 Z" fill="#000" fill-opacity="1" stroke="#000" stroke-width="0" paint-order="fill" stroke-opacity="1" stroke-dasharray="" stroke-linecap="butt" stroke-linejoin="miter" stroke-miterlimit="10" clip-path="none" style="filter: url(#f1)"/>
<path d="M 267.6572 365.4403 L 268.3562 364.0691 L 268.4477 363.6011 L 267.8412 362.8485 L 267.1963 362.5814 L 266.0205 362.4216 L 265.0558 361.4331 L 264.5215 361.1422 L 263.8789 361.0738 L 262.2472 361.4357 L 261.6957 361.3572 L 260.9105 361.0507 L 259.7137 360.292 L 259.2232 360.1248 L 258.6461 360.1362 L 257.439 360.5827 L 255.9057 361.2687 L 255.3339 361.6468 L 254.9639 361.9754 L 254.4192 362.6754 L 253.1069 364.5507 L 252.531 364.958 L 252.2188 365.0306 L 251.5774 364.9453 L 250.7084 364.5705 L 249.898 364.1388 L 248.936 363.376 L 248.056 362.9237 L 247.7126 362.5202 L 246.4891 361.4654 L 245.9235 361.1394 L 245.463 361.0492 L 244.6093 361.5452 L 243.4635 362.0839 L 242.8354 362.2574 L 240.2528 363.1463 L 239.1574 363.7022 L 238.9771 363.9045 L 237.6095 364.8856 L 236.9216 365.5132 L 235.8475 366.4208 L 234.2295 368.1339 L 233.2317 368.9852 L 232.3219 369.8422 L 230.492 370.8823 L 229.0982 371.4926 L 228.2558 371.8031 L 227.7218 371.9047 L 226.6927 371.8969 L 225.7227 371.6326 L 224.7737 371.1554 L 224.1623 370.5486 L 223.9199 369.8593 L 223.8281 368.9201 L 223.9108 368.2381 L 224.0571 367.8354 L 224.3567 366.1893 L 224.2671 365.8011 L 224.3937 365.0299 L 224.2359 364.0254 L 223.9454 363.0883 L 223.7011 362.8119 L 221.5724 361.1219 L 220.5605 359.829 L 220.1123 358.8655 L 219.8058 357.9271 L 219.7254 356.6983 L 219.5981 353.5099 L 219.7342 351.8984 L 219.8794 351.3124 L 220.0212 350.3898 L 220.0261 349.5798 L 220.086 349.1407 L 220.0532 347.9764 L 219.4857 344.8947 L 218.8598 343.0014 L 218.1459 341.285 L 217.3044 339.6054 L 217.2609 339.3119 L 216.6031 338.1494 L 216.0028 337.5109 L 215.176 336.8104 L 214.0795 335.9528 L 212.1395 334.5758 L 211.2274 333.8529 L 210.2936 333.3574 L 209.5904 332.8785 L 208.4248 332.198 L 207.3683 331.5094 L 206.4345 330.6612 L 205.8776 329.9782 L 205.894 329.0927 L 206.0697 328.2186 L 206.3525 327.7043 L 206.7058 327.3783 L 206.6868 327.2088 L 207.8733 325.6593 L 208.5674 324.3949 L 209.1738 323.4758 L 209.8213 322.3149 L 209.9704 321.6989 L 210.0241 320.7855 L 209.8713 320.1629 L 209.6506 319.8717 L 208.5483 318.7824 L 206.5797 317.1094 L 205.5304 316.0384 L 205.1546 315.3536 L 205.1226 314.9534 L 205.238 314.6866 L 206.1086 314.1393 L 207.0767 313.1402 L 207.4388 312.5245 L 207.4746 312.1601 L 206.9734 311.4814 L 206.8007 311.0711 L 206.7489 310.5169 L 207.4868 309.5013 L 208.1435 308.7695 L 208.6261 308.3614 L 209.5679 307.9713 L 210.5062 307.4283 L 211.1805 306.8655 L 211.3112 306.6152 L 211.1999 306.118 L 210.2292 304.4422 L 209.6849 303.669 L 209.1234 303.0779 L 208.1908 301.9391 L 207.0508 300.9382 L 206.2126 300.1119 L 205.8643 299.5206 L 205.796 298.5982 L 205.9489 298.1202 L 206.5641 297.2484 L 207.2631 296.7804 L 207.4914 296.4302 L 207.6023 295.4751 L 207.1956 294.0389 L 206.1345 292.2638 L 205.4782 291.5882 L 204.9434 291.2886 L 204.0878 290.6747 L 203.7371 290.2969 L 203.4897 289.5907 L 203.5431 289.2274 L 203.7744 288.8472 L 205.5597 287.8796 L 206.1886 287.3912 L 206.5995 286.2448 L 206.601 285.3277 L 206.4505 284.8886 L 206.2687 284.0496 L 206.2408 283.2528 L 206.415 282.7306 L 206.8594 282.1365 L 207.5741 281.4713 L 208.7465 280.6104 L 209.2149 280.1251 L 209.7154 279.1227 L 209.8785 278.5233 L 209.8091 277.9681 L 209.2222 276.7784 L 209.1166 276.2361 L 209.117 275.6852 L 209.306 275.1798 L 209.5648 274.8627 L 210.5104 274.1375 L 211.0094 274.0519 L 213.443 274.0768 L 214.1058 274.1093 L 216.3523 274.0733 L 217.8738 274.1063 L 219.1038 274.072 L 219.9754 274.1187 L 224.7748 274.1365 L 225.6941 274.0478 L 225.8573 273.6011 L 225.7837 272.0987 L 225.9129 271.8326 L 227.3052 271.731 L 227.5785 271.6126 L 228.1811 271.532 L 228.2627 271.0185 L 225.4315 270.7756 L 224.6372 270.6589 L 224.2976 270.5433 L 224.0369 270.1431 L 223.7415 269.3587 L 223.7617 268.5652 L 224.0396 267.8212 L 224.1791 267.2505 L 224.4653 266.415 L 225.1773 265.1209 L 225.8523 264.0372 L 226.5887 263.2335 L 227.407 262.6793 L 227.7173 262.3345 L 228.4178 261.9244 L 228.6717 261.6215 L 228.6084 261.159 L 228.0896 259.9467 L 228.0957 259.4891 L 228.3023 258.9382 L 229.7495 257.5722 L 230.5903 256.5456 L 231.2631 255.248 L 231.6751 254.7265 L 232.6028 253.2934 L 232.74 252.9212 L 233.343 252.397 L 234.6309 251.5994 L 235.0539 251.1395 L 235.3105 250.5919 L 235.9546 249.7805 L 236.5103 249.5887 L 237.0462 249.6253 L 238.1694 249.8995 L 239.3407 250.0237 L 240.2859 249.9495 L 241.1004 249.7747 L 242.8221 249.1557 L 243.1704 249.1331 L 243.8291 248.7492 L 244.3672 248.5555 L 245.5484 247.931 L 246.1171 247.5712 L 247.7972 246.1693 L 249.6286 244.5934 L 250.1965 244.2333 L 250.6504 243.7739 L 251.6334 242.9974 L 252.4715 242.2877 L 253.2091 241.5409 L 254.0121 240.8292 L 254.8518 239.4474 L 255.1251 238.6409 L 255.1556 237.8339 L 254.8773 235.9236 L 254.774 234.8488 L 254.7424 233.9615 L 254.9128 232.9197 L 254.9974 231.8718 L 254.8164 229.8456 L 254.6479 228.9347 L 254.3068 227.3867 L 254.1978 226.6015 L 253.9393 225.9594 L 253.6199 224.7944 L 253.2979 223.8733 L 252.7624 222.1909 L 252.4883 220.6933 L 252.4456 218.676 L 252.693 218.1731 L 253.1607 217.8131 L 283.1911 242.6938 L 312.2775 266.2567 L 333.5752 266.6727 L 353.2137 266.9631 L 352.1606 302.1304 L 351.975 308.2244 L 351.1761 334.1489 L 350.7008 334.5982 L 350.3185 344.5148 L 350.7492 344.9369 L 349.9526 369.0685 L 307.2773 367.3971 L 267.6572 365.4403 Z" fill="#000" fill-opacity="1" stroke="#000" stroke-width="0" paint-order="fill" stroke-opacity="1" stroke-dasharray="" stroke-linecap="butt" stroke-linejoin="miter" stroke-miterlimit="10" clip-path="none" style="filter: url(#f1)"/>
<path d="M 288.8168 135.9463 L 289.4286 135.4521 L 289.8517 134.6928 L 289.9508 134.0423 L 290.205 132.9558 L 290.2008 132.0266 L 289.9572 130.5241 L 289.6119 129.3829 L 289.2773 129.0491 L 289.0307 128.6275 L 288.4955 127.9503 L 287.9661 127.5019 L 287.1105 126.9024 L 285.5897 126.2288 L 285.1918 126.1513 L 284.4908 125.802 L 283.7426 125.0689 L 283.3413 124.0921 L 283.2807 123.3281 L 283.3787 122.7076 L 283.7617 122.4039 L 284.1722 122.2083 L 284.423 122.2037 L 285.9449 121.8266 L 286.5483 121.4406 L 286.6531 121.0186 L 286.5223 120.2601 L 286.1401 118.9403 L 285.9666 117.7448 L 285.8058 117.296 L 285.146 116.4911 L 285.0374 115.9989 L 285.0069 115.2816 L 285.167 113.7649 L 285.3724 112.6613 L 285.5992 112.1224 L 286.3039 111.0249 L 286.4926 110.5757 L 286.2616 109.5451 L 285.9468 108.846 L 285.7433 107.6033 L 286.2117 106.892 L 286.7061 106.6385 L 287.5495 106.3999 L 289.4114 106.4019 L 290.5796 106.313 L 291.3179 106.176 L 292.0505 105.8101 L 292.5364 105.388 L 293.9406 104.5312 L 294.8306 103.6381 L 295.2864 103.2264 L 295.7792 102.2248 L 296.5347 101.6739 L 297.8069 100.6862 L 298.748 100.0512 L 299.6258 99.7029 L 299.9021 99.4546 L 300.0042 99.0168 L 299.9421 98.5208 L 299.7184 97.48 L 299.8137 96.5081 L 299.6856 95.6805 L 299.107 94.5757 L 298.9161 93.6846 L 298.514 92.7236 L 298.4396 92.1872 L 298.8528 90.4207 L 299.0632 89.1032 L 298.9466 87.6818 L 299.0453 87.3502 L 297.3671 83.9755 L 296.9078 82.4944 L 296.8331 81.973 L 296.4561 80.8456 L 296.2195 79.5705 L 296.046 79.045 L 295.6687 77.2468 L 295.5608 75.337 L 295.6146 72.7937 L 295.4309 71.8106 L 295.4084 71.2303 L 295.1225 70.3041 L 294.4986 69.2267 L 294.0778 68.7218 L 293.5556 68.2736 L 293.2675 68.1092 L 292.4419 67.4803 L 291.3709 66.826 L 291.1723 66.8481 L 290.3136 66.5683 L 290.0136 66.312 L 289.3981 65.4323 L 288.7917 64.7205 L 287.742 63.6538 L 287.8682 63.0956 L 288.106 62.9381 L 288.8226 62.7399 L 289.7015 62.5788 L 290.2115 62.5696 L 290.9253 62.4166 L 291.9746 62.1255 L 292.5547 62.0269 L 293.3102 61.6925 L 293.516 61.5179 L 294.446 60.9467 L 295.3173 60.2355 L 296.1611 59.4008 L 296.9661 57.6345 L 297.5767 56.8512 L 297.9319 56.2711 L 298.8318 55.2552 L 299.0822 54.808 L 299.67 54.1453 L 299.9917 53.9295 L 305.0197 53.4996 L 310.3912 53.4546 L 320.4954 53.428 L 331.5894 53.3703 L 341.1291 53.3334 L 347.1886 53.2999 L 356.1764 53.3266 L 356.604 53.3078 L 357.356 53.3779 L 362.5137 53.4638 L 372.829 53.6162 L 383.1455 53.7443 L 393.4635 53.847 L 399.3968 53.8947 L 399.0846 70.0332 L 398.7679 86.377 L 397.881 130.9065 L 396.8355 135.7948 L 396.755 140.2298 L 395.4954 208.2268 L 393.0675 207.2251 L 369.7471 176.4679 L 343.8162 141.4698 L 303.7196 144.3993 L 288.8168 135.9463 Z" fill="#000" fill-opacity="1" stroke="#000" stroke-width="0" paint-order="fill" stroke-opacity="1" stroke-dasharray="" stroke-linecap="butt" stroke-linejoin="miter" stroke-miterlimit="10" clip-path="none" style="filter: url(#f1)"/>
<path d="M 498.3159 282.9377 L 447.7173 283.6324 L 441.0457 283.6802 L 440.8361 274.4846 L 394.3249 274.5814 L 394.1373 274.5799 L 394.3047 267.2823 L 395.2865 219.1623 L 395.4954 208.2268 L 414.4326 215.9688 L 432.5058 214.6519 L 448.9911 213.3834 L 465.3845 212.0583 L 472.8725 216.3846 L 501.3193 192.8783 L 502.7536 194.2565 L 504.4676 194.2984 L 519.7721 214.1892 L 523.5104 219.0043 L 538.0679 225.4324 L 538.5177 225.2309 L 538.6564 225.8784 L 538.3511 226.3779 L 537.2827 226.8592 L 536.8387 226.896 L 536.4362 227.0996 L 535.9365 227.1738 L 535.4788 227.0996 L 534.285 227.1367 L 533.0917 227.4327 L 532.4811 227.6733 L 531.3571 228.3764 L 530.9546 228.876 L 530.9409 229.2274 L 530.025 229.838 L 528.9147 230.1711 L 528.2488 230.7446 L 527.9988 231.0777 L 527.097 231.5404 L 526.5973 231.744 L 525.8202 232.225 L 525.487 232.5949 L 525.0846 233.2795 L 525.1958 233.7051 L 525.0708 233.8718 L 524.8764 234.8894 L 524.6962 235.2594 L 524.5574 236.6285 L 524.0715 237.0541 L 523.794 237.2022 L 522.92 238.0717 L 522.5869 238.6455 L 522.4203 239.1265 L 522.5175 239.7371 L 522.2538 240.1627 L 522.2397 240.6991 L 522.4897 240.9583 L 521.4073 241.9203 L 521.3101 242.383 L 521.0463 242.6605 L 520.4914 242.9565 L 519.8114 243.6781 L 519.3811 243.6781 L 518.5067 243.8817 L 516.7721 244.4369 L 515.5094 245.0289 L 514.1636 245.806 L 513.4973 246.2687 L 511.4018 247.6006 L 510.0834 248.674 L 508.9457 249.5249 L 507.5858 250.7278 L 507.3914 251.0424 L 507.4051 251.4124 L 505.5733 253.4662 L 505.1156 253.7808 L 504.4912 254.4282 L 503.9222 255.372 L 503.6863 255.6126 L 503.3947 256.149 L 503.1588 256.9817 L 503.0478 257.1298 L 502.9922 257.8883 L 502.4929 259.3686 L 502.2013 259.6647 L 502.215 260.2382 L 502.0763 260.5527 L 501.5214 260.7934 L 501.0636 261.2187 L 500.5639 262.0329 L 500.3139 262.6991 L 500.3002 263.3282 L 500.5224 263.8093 L 501.4657 264.0313 L 501.2717 264.3088 L 501.3963 264.9009 L 501.6601 265.1783 L 501.6601 265.4004 L 501.2439 266.011 L 500.897 266.0667 L 500.3974 266.5291 L 499.9118 266.5106 L 499.3843 266.6587 L 499.1483 266.8991 L 498.9402 266.8991 L 498.8152 267.2322 L 498.7321 267.8057 L 498.4127 268.0463 L 498.8293 269.4525 L 498.76 269.73 L 498.4684 269.8781 L 498.7874 270.3223 L 499.9811 270.4148 L 500.3417 270.1556 L 500.6192 270.1556 L 501.327 269.9521 L 501.4935 269.9706 L 501.6601 270.6368 L 501.6742 271.2474 L 501.9654 271.7099 L 501.9376 272.5426 L 501.9795 273.0975 L 501.7573 273.7452 L 501.577 274.0041 L 501.0358 275.1885 L 500.9245 275.7991 L 500.6748 276.7425 L 500.4389 277.3348 L 499.7452 278.5004 L 499.7452 278.6668 L 499.1483 279.5366 L 498.7737 280.4618 L 498.718 281.3313 L 498.5099 282.0715 L 498.5099 282.386 L 498.3159 282.9377 Z" fill="#000" fill-opacity="1" stroke="#000" stroke-width="0" paint-order="fill" stroke-opacity="1" stroke-dasharray="" stroke-linecap="butt" stroke-linejoin="miter" stroke-miterlimit="10" clip-path="none" style="filter: url(#f1)"/>
<path d="M 253.1607 217.8131 L 253.6382 217.5473 L 255.2566 216.4605 L 255.9651 216.2006 L 256.6695 215.5582 L 257.3849 214.7799 L 258.1628 214.5086 L 259.4781 214.6064 L 260.4638 214.5307 L 262.3623 213.7646 L 262.7068 213.526 L 263.1394 212.6071 L 263.2096 211.9251 L 263.3971 211.2808 L 263.9406 210.6887 L 264.4597 210.4158 L 264.8801 210.3043 L 265.4484 210.2781 L 266.4394 210.7812 L 266.8606 210.8831 L 267.3107 210.8343 L 267.5695 210.5906 L 267.6861 210.1856 L 266.8526 208.0761 L 266.6586 207.698 L 266.133 206.9489 L 265.9908 206.3454 L 266.0453 205.8606 L 266.9391 203.5816 L 266.9757 202.6536 L 266.7272 198.9631 L 266.5919 198.0545 L 266.3742 197.3092 L 265.8082 195.7798 L 265.6931 195.0559 L 265.788 194.4821 L 265.6943 193.2566 L 265.8143 192.5777 L 265.6089 191.696 L 264.8691 191.3296 L 264.1514 191.3463 L 263.4245 191.2556 L 262.9229 190.9039 L 262.5334 190.2087 L 262.259 188.9103 L 262.1858 188.3111 L 261.6739 187.4403 L 260.6849 187.0122 L 260.2313 186.7728 L 260.051 186.4636 L 258.252 184.689 L 256.8974 183.1786 L 256.3848 182.0883 L 256.1618 180.9817 L 256.2022 180.5878 L 256.6409 179.4823 L 257.2138 178.6877 L 257.8526 177.9117 L 258.4632 177.3318 L 258.8725 176.7118 L 258.8698 176.4682 L 259.7659 173.2986 L 260.1017 172.4771 L 260.6993 171.2267 L 260.7131 170.9835 L 261.1236 170.0286 L 261.9167 168.3 L 262.5746 167.1436 L 263.4474 165.4787 L 263.84 164.8122 L 264.9541 163.0366 L 266.014 161.6088 L 266.3033 160.9675 L 266.792 160.0761 L 267.0279 159.4782 L 267.0504 158.4743 L 267.7429 156.3434 L 267.895 155.4218 L 267.9064 153.7016 L 267.6507 153.1568 L 267.2486 152.8186 L 265.9149 152.2847 L 265.4858 151.8235 L 265.4381 150.8773 L 265.7228 150.007 L 266.1798 149.0534 L 266.6063 148.6466 L 267.2832 148.2822 L 268.4335 147.8474 L 269.9951 147.5837 L 270.7742 147.482 L 271.5791 147.2137 L 272.1341 147.2084 L 273.1948 147.8042 L 273.9278 147.9285 L 274.6603 147.7481 L 275.0258 147.5204 L 275.4394 147.0211 L 275.5427 146.66 L 276.1369 145.2854 L 276.2425 144.8788 L 276.7345 144.474 L 278.2454 143.5351 L 279.0976 142.6588 L 279.4997 141.7168 L 280.0554 140.7205 L 281.1268 139.4724 L 281.3483 139.0859 L 281.7698 138.0682 L 281.8907 137.6779 L 281.6467 136.5556 L 281.1604 135.59 L 280.9626 134.8808 L 280.9854 134.44 L 281.2137 133.9168 L 281.904 133.5202 L 282.4662 133.6663 L 283.137 133.9691 L 283.655 134.3262 L 284.0388 134.3579 L 284.5446 134.6229 L 284.6696 134.796 L 286.1191 135.619 L 286.7312 135.7814 L 287.8015 136.1612 L 288.3538 136.1691 L 288.8168 135.9463 L 303.7196 144.3993 L 343.8162 141.4698 L 369.7471 176.4679 L 393.0675 207.2251 L 395.4954 208.2268 L 395.2865 219.1623 L 394.3047 267.2823 L 360.1666 267.0447 L 353.2137 266.9631 L 333.5752 266.6727 L 312.2775 266.2567 L 283.1911 242.6938 L 253.1607 217.8131 Z" fill="#000" fill-opacity="1" stroke="#000" stroke-width="0" paint-order="fill" stroke-opacity="1" stroke-dasharray="" stroke-linecap="butt" stroke-linejoin="miter" stroke-miterlimit="10" clip-path="none" style="filter: url(#f1)"/>
<path id="corpenAike" class="department" d="M 425.304 370.9219 L 425.2914 371.0019 L 383.9741 370.1014 L 362.2461 369.4725 L 349.9526 369.0685 L 350.7492 344.9369 L 350.3185 344.5148 L 350.7008 334.5982 L 351.1761 334.1489 L 351.975 308.2244 L 352.1606 302.1304 L 353.2137 266.9631 L 360.1666 267.0447 L 394.3047 267.2823 L 394.1373 274.5799 L 394.3249 274.5814 L 440.8361 274.4846 L 441.0457 283.6802 L 447.7173 283.6324 L 498.3159 282.9377 L 498.08 283.7551 L 497.9687 284.551 L 497.7328 285.5869 L 497.7328 286.7156 L 497.6775 287.1783 L 497.4416 287.8814 L 497.2472 288.788 L 497.1641 289.5836 L 497.0528 290.1203 L 496.9003 291.3783 L 496.9003 292.0074 L 496.8032 292.6737 L 496.8447 293.6542 L 496.706 294.598 L 496.5394 295.079 L 496.151 295.6339 L 496.3176 296.9293 L 496.0675 298.1688 L 496.345 298.7979 L 496.3728 299.8895 L 496.0954 301.4624 L 496.0954 302.7021 L 495.9288 303.4052 L 495.8873 303.9048 L 495.6651 304.7928 L 495.6792 305.0889 L 495.3739 305.9215 L 494.8326 307.1056 L 494.8326 307.3092 L 494.5689 307.8087 L 494.3608 308.4193 L 494.1527 308.5489 L 493.8611 309.3076 L 493.7224 309.4001 L 493.4864 310.0847 L 492.9593 311.1209 L 492.6125 312.2864 L 492.0293 313.4522 L 491.0581 315.0805 L 490.5585 315.6725 L 490.2394 316.4495 L 489.3373 317.6153 L 488.671 318.2259 L 487.7136 319.1697 L 486.2912 320.4091 L 485.6527 320.7608 L 484.3206 321.5935 L 483.71 322.2041 L 483.0716 322.759 L 482.3223 323.2771 L 482.0726 323.3696 L 481.462 323.7767 L 479.8799 324.739 L 477.1048 325.9416 L 475.9945 326.4597 L 474.6346 327.1442 L 473.4134 327.4959 L 472.2475 327.7734 L 470.2217 328.0323 L 469.1949 327.9584 L 467.8902 327.9955 L 466.3915 328.1065 L 465.6422 328.199 L 464.8094 328.0509 L 464.1157 328.9575 L 464.3932 329.3092 L 464.4488 330.1047 L 464.3101 330.6043 L 464.0048 330.9928 L 462.9502 331.6773 L 462.0895 332.325 L 461.0349 332.7135 L 459.314 333.2873 L 458.9535 333.5277 L 456.9551 334.1568 L 455.7618 334.5639 L 455.3452 334.8228 L 454.4293 335.1745 L 453.0419 335.6369 L 452.3757 335.9886 L 451.4598 336.3217 L 451.2376 336.3217 L 450.7104 336.5992 L 449.8776 336.8767 L 448.7121 337.3762 L 448.1015 337.7279 L 447.8793 337.7279 L 446.9359 338.0979 L 446.7137 338.0979 L 445.6035 338.5606 L 445.6313 338.8381 L 444.9376 339.0416 L 444.0217 339.0787 L 443.522 339.208 L 442.8836 339.6336 L 442.079 340.0963 L 442.079 340.3553 L 441.274 340.7809 L 440.0807 341.1508 L 439.4422 341.3915 L 438.9147 341.669 L 438.1376 342.3349 L 438.4429 343.0012 L 438.1376 343.1862 L 437.9436 343.5193 L 438.1376 343.6118 L 438.1376 344.0559 L 437.8048 343.8524 L 437.527 344.0742 L 437.1664 344.0374 L 436.8611 344.1853 L 436.6389 344.5184 L 435.9174 345.2215 L 435.973 345.5914 L 435.7787 345.6656 L 435.3346 346.1096 L 434.9459 346.3873 L 434.0025 347.5157 L 433.475 348.3116 L 433.1141 348.7186 L 433.031 348.9961 L 432.5313 349.8842 L 432.2538 350.6244 L 431.9207 351.2349 L 431.1714 352.1416 L 430.8382 352.6597 L 430.4777 353.0111 L 430.3389 353.3442 L 430.2277 354.0473 L 429.9502 354.5468 L 429.7005 355.3424 L 428.7846 356.7857 L 428.5072 357.1559 L 428.5624 357.4334 L 428.2571 357.6555 L 428.2571 358.229 L 428.174 358.6175 L 428.174 359.2466 L 427.6465 360.9674 L 427.5913 361.4484 L 426.8141 363.4469 L 426.8141 363.6318 L 426.1757 364.4828 L 425.8704 365.3894 L 425.8704 365.9817 L 425.7317 366.8698 L 425.2598 367.9243 L 425.1489 368.4056 L 425.1489 369.6453 L 425.2876 370.4409 L 425.304 370.9219 Z" fill="#eee" fill-opacity="1" stroke="#000000" stroke-width="0.4" paint-order="fill" stroke-opacity="1" stroke-dasharray="" stroke-linecap="butt" stroke-linejoin="miter" stroke-miterlimit="10" clip-path="none"/>
<path id="deseado" class="deparment" d="M 538.5177 225.2309 L 538.0679 225.4324 L 523.5104 219.0043 L 519.7721 214.1892 L 504.4676 194.2984 L 502.7536 194.2565 L 501.3193 192.8783 L 472.8725 216.3846 L 465.3845 212.0583 L 448.9911 213.3834 L 432.5058 214.6519 L 414.4326 215.9688 L 395.4954 208.2268 L 396.755 140.2298 L 396.8355 135.7948 L 397.881 130.9065 L 398.7679 86.377 L 399.0846 70.0332 L 399.3968 53.8947 L 408.9437 53.9511 L 413.1157 53.9743 L 419.2651 53.9918 L 429.5805 54.0121 L 440.4934 54.0017 L 445.058 53.9837 L 449.1493 53.974 L 455.3783 53.9435 L 460.5379 53.9115 L 467.7313 53.8546 L 476.0162 53.7723 L 486.3323 53.6566 L 493.1038 53.5609 L 502.5897 53.4145 L 502.6595 54.1542 L 503.0616 54.4131 L 502.6869 54.672 L 502.9369 55.1718 L 502.5897 55.2643 L 502.2985 55.7453 L 502.451 56.0042 L 502.2695 56.1303 L 502.2429 56.467 L 500.9664 56.763 L 500.8414 57.059 L 500.8692 57.6325 L 501.5351 57.725 L 501.4657 58.2431 L 500.9096 58.6143 L 500.772 59.0204 L 500.772 59.7974 L 500.8692 60.2784 L 500.7857 60.5744 L 500.8524 60.8522 L 500.7442 61.185 L 500.7164 61.8142 L 500.7305 63.461 L 500.7998 64.6082 L 501.1051 67.0135 L 501.3411 68.3643 L 501.6044 69.5669 L 501.9238 70.7139 L 502.4929 73.138 L 502.8535 74.1 L 503.3116 75.5619 L 503.8246 76.8931 L 504.213 77.6711 L 504.4215 78.2263 L 504.7577 78.7266 L 504.7546 78.9109 L 505.0565 79.556 L 505.0599 79.8543 L 505.4323 80.3196 L 505.7262 81.0941 L 506.4309 82.3153 L 506.4618 82.7213 L 507.1665 83.7395 L 507.4867 84.3656 L 507.4592 84.9795 L 507.8625 85.4793 L 507.9742 85.942 L 508.2737 86.2563 L 508.8763 87.2925 L 509.0844 87.977 L 509.3063 88.2733 L 509.6672 88.9947 L 510.014 89.8645 L 510.5694 90.7525 L 511.0428 91.233 L 511.1659 91.4742 L 511.9015 92.0477 L 512.1096 92.6029 L 512.3455 92.9914 L 513.1086 93.8055 L 513.7333 94.1755 L 514.5798 94.8971 L 515.2182 95.1932 L 516.3003 95.5634 L 517.4666 95.7898 L 517.9209 95.9687 L 518.3406 96.3589 L 518.9927 96.3589 L 519.2839 96.4885 L 519.6448 96.8214 L 519.8792 97.247 L 520.1445 97.9316 L 520.5886 98.4497 L 521.1351 98.6532 L 521.6577 98.9482 L 522.2538 99.523 L 522.7809 99.745 L 523.1834 99.7052 L 523.3641 99.3563 L 523.9747 99.5415 L 524.5159 99.819 L 524.6683 100.0225 L 524.6405 100.3 L 525.0015 100.4296 L 525.0293 100.1336 L 525.3899 100.3739 L 525.487 100.7071 L 525.8335 101.1848 L 525.8202 101.6137 L 526.2227 102.2799 L 526.7113 102.6128 L 527.0414 103.2419 L 527.3329 103.6304 L 527.6382 103.7971 L 528.1932 104.9441 L 528.8175 105.5918 L 529.4559 106.0146 L 529.8169 106.7759 L 530.4164 107.4986 L 531.1905 108.1267 L 532.0759 108.5709 L 532.5226 108.9037 L 532.717 109.3664 L 533.0082 109.8119 L 533.5635 110.1991 L 534.1463 110.1991 L 534.3963 110.347 L 534.5766 110.7355 L 535.1041 111.1797 L 535.09 111.4571 L 535.2703 111.7717 L 535.8393 112.2527 L 536.0753 112.734 L 536.7667 113.6035 L 536.9355 114.0291 L 537.1714 114.3066 L 537.5187 114.4916 L 537.8514 115.2689 L 538.2539 115.6945 L 538.8923 115.8053 L 539.1004 115.7128 L 539.3078 116.0273 L 539.2392 116.564 L 539.5723 117.0821 L 539.9328 117.4714 L 540.7374 118.1582 L 540.8769 118.3587 L 541.3625 118.6918 L 541.8172 119.0976 L 542.3173 119.6909 L 542.3752 119.988 L 542.6531 120.283 L 543.694 121.0231 L 544.6652 121.5783 L 546.0945 122.2443 L 546.7885 122.5033 L 547.4963 122.5404 L 548.5788 122.1333 L 549.0499 122.1549 L 549.3548 122.3541 L 549.564 122.781 L 550.0774 123.151 L 550.7852 123.2991 L 551.4789 123.2249 L 551.9679 122.968 L 552.4779 122.9474 L 553.0191 123.262 L 553.6297 123.2066 L 553.9346 123.4274 L 554.5041 123.4655 L 555.1288 123.373 L 555.3228 123.2434 L 555.9475 123.151 L 556.5439 122.9474 L 557.3767 123.0214 L 558.4314 123.2805 L 559.2501 123.373 L 560.0966 123.7245 L 560.8745 123.8014 L 561.2069 123.9836 L 561.9006 124.039 L 562.5249 124.2611 L 563.5105 124.5203 L 564.7317 124.7792 L 565.6888 124.8377 L 565.8832 124.9642 L 566.8684 125.0198 L 567.3266 124.9113 L 567.7843 125.0567 L 568.0481 125.2788 L 568.8668 125.4084 L 569.658 125.4114 L 570.8099 125.7044 L 571.4063 125.944 L 572.3085 126.0375 L 573.03 126.0375 L 573.9459 125.6304 L 574.3069 125.6119 L 575.0977 125.7598 L 576.1524 125.7044 L 576.2911 125.7969 L 576.9989 125.8708 L 577.7204 125.5933 L 578.3173 125.2417 L 578.7891 125.0938 L 579.3163 125.0752 L 580.0797 124.9456 L 581.259 125.1309 L 581.8421 125.0198 L 582.1611 125.0381 L 582.5636 125.2234 L 583.2714 124.9456 L 583.5352 125.1309 L 583.9514 125.1492 L 584.3539 125.3527 L 584.7838 125.3344 L 585.1726 125.4823 L 585.2278 125.7229 L 585.8137 125.9237 L 586.13 126.2039 L 586.449 126.2964 L 587.254 126.7035 L 588.3921 126.611 L 588.4615 126.8331 L 588.8083 127.2955 L 589.2661 127.3697 L 589.4746 127.6101 L 589.4052 127.8693 L 589.4326 128.4242 L 589.7257 129.0867 L 590.0852 129.59 L 590.5155 129.9933 L 591.556 130.6445 L 592.0557 131.3476 L 592.9022 132.1064 L 593.485 132.6799 L 593.6653 132.7541 L 594.5396 133.4754 L 595.1917 133.7173 L 594.9821 133.9567 L 594.734 133.9381 L 594.2621 134.4006 L 594.1371 135.3629 L 594.3868 136.0845 L 594.7168 136.6395 L 594.7199 137.2132 L 594.9143 137.9163 L 595.2306 138.4908 L 595.3697 138.9131 L 595.4277 139.4703 L 595.5352 139.711 L 595.8302 140.9136 L 595.8161 141.1166 L 596.0939 142.0238 L 596.065 143.4503 L 595.9948 143.5763 L 595.9826 144.3691 L 595.7886 145.1507 L 595.733 145.7613 L 595.7463 147.9447 L 595.6221 148.6478 L 595.5527 149.7356 L 595.4414 150.6097 L 595.1502 151.8118 L 595.0923 153.8662 L 595.0511 154.2154 L 594.7199 154.7906 L 594.5953 155.1591 L 594.3174 156.3635 L 594.2507 156.9942 L 594.0819 157.7516 L 593.6931 159.0094 L 593.3878 159.435 L 593.0962 160.101 L 592.9575 160.7855 L 592.3469 162.8026 L 591.9722 163.5981 L 591.5735 164.6725 L 591.3894 164.9672 L 591.0841 165.7074 L 590.921 166.4085 L 590.6123 167.095 L 590.4042 167.7798 L 590.2792 167.9463 L 589.7658 169.1674 L 589.9323 169.7041 L 589.4746 169.8334 L 589.3774 170.1859 L 588.0731 170.3277 L 587.7121 170.5182 L 587.1015 170.7218 L 587.1568 171.2582 L 587.7815 171.4802 L 587.7815 172.4979 L 588.0609 172.9784 L 588.0727 173.497 L 588.2949 173.6637 L 588.2671 174.0708 L 588.503 174.5518 L 588.7378 175.2145 L 588.8476 175.7877 L 588.864 176.8646 L 589.0164 177.4566 L 589.0301 178.1414 L 589.305 178.4743 L 589.7658 179.5844 L 589.9049 179.7679 L 590.2933 179.6955 L 590.7373 180.2875 L 591.0148 180.3985 L 591.5419 180.2875 L 591.9863 180.3432 L 592.3747 180.2692 L 592.6522 180.3617 L 592.8466 180.6392 L 593.4015 180.7871 L 593.5543 181.0091 L 593.8596 181.0462 L 593.6374 181.4162 L 593.2079 181.4713 L 593.0825 181.6383 L 592.6106 181.5829 L 592.3469 182.1378 L 592.6663 182.4524 L 592.3053 182.7113 L 592.6106 182.8224 L 592.6522 183.174 L 593.679 183.0816 L 593.8455 183.4147 L 593.485 183.6551 L 593.1378 183.4886 L 592.5275 183.6365 L 592.0557 183.5255 L 591.8891 184.1361 L 591.4588 184.1917 L 591.3479 183.9473 L 590.3905 184.4506 L 590.3626 184.2103 L 589.8908 184.1178 L 590.0017 183.9325 L 590.0017 183.5255 L 590.2349 183.1911 L 590.1122 182.7876 L 589.186 182.5446 L 588.9749 182.767 L 588.6833 182.8409 L 588.5308 182.5449 L 588.2957 182.4105 L 587.5029 182.3373 L 587.3234 182.2118 L 586.9487 182.2118 L 586.3244 182.4339 L 585.9497 182.6745 L 585.3807 183.1555 L 584.8116 184.0253 L 584.4648 185.0612 L 584.4785 185.4868 L 584.6313 185.6904 L 585.006 185.5979 L 585.0891 186.0004 L 585.6166 185.9125 L 585.7832 186.2641 L 585.6444 186.5601 L 585.3113 186.6526 L 585.3529 186.9301 L 584.881 186.893 L 584.881 187.3372 L 585.4638 187.5219 L 585.2972 187.8367 L 584.7007 187.8921 L 584.4232 187.7071 L 584.326 188.0774 L 584.9645 188.5769 L 585.0453 188.8336 L 584.7701 188.8915 L 584.2704 189.2061 L 584.2289 189.4835 L 583.8264 189.761 L 583.5489 189.7239 L 583.4517 189.9831 L 583.8957 190.9083 L 584.2426 191.3707 L 584.6992 191.3557 L 584.7282 191.6139 L 585.0338 191.8149 L 585.6581 191.8334 L 586.13 191.9813 L 586.4216 192.1848 L 586.9628 192.8694 L 587.4484 193.5727 L 587.2956 193.6835 L 586.8934 193.4246 L 586.6991 193.6467 L 586.4353 193.4617 L 586.255 193.8131 L 586.4075 193.9427 L 585.9634 194.3683 L 585.8804 194.5533 L 585.45 194.4976 L 585.0605 194.2534 L 585.006 194.5533 L 585.2004 194.8493 L 584.6729 194.8679 L 584.6592 194.5347 L 584.8654 194.2941 L 584.5204 193.7392 L 583.8126 193.5171 L 583.3823 193.5727 L 582.9661 193.4617 L 582.5221 193.7763 L 582.6608 194.0537 L 582.3833 194.1462 L 582.2999 193.8316 L 581.9252 193.887 L 581.8002 193.6835 L 581.4255 193.7577 L 581.259 194.0906 L 580.3278 193.7577 L 579.8891 193.7577 L 579.4135 193.9056 L 579.2054 194.0723 L 579.0666 194.7937 L 578.8585 194.7197 L 578.9001 194.3498 L 578.4976 194.1091 L 577.8614 194.1681 L 577.4986 194.4237 L 577.0565 194.4933 L 577.0412 194.6478 L 576.4439 194.7939 L 575.958 195.0528 L 575.6946 195.4043 L 575.6249 195.682 L 575.7777 195.9595 L 575.1671 196.1444 L 575.3893 196.644 L 575.1808 196.8846 L 575.1256 197.5692 L 574.4593 198.1058 L 574.239 198.0913 L 573.8487 198.8231 L 574.2649 198.735 L 574.364 199.2541 L 573.8628 199.7155 L 573.4462 199.7895 L 573.0716 199.697 L 572.7693 199.8273 L 572.2944 199.7526 L 572.0448 199.8637 L 571.8226 200.1965 L 570.8792 200.0855 L 570.1714 200.5667 L 569.7411 201.2327 L 569.2834 201.4177 L 569.1862 201.6213 L 569.3108 202.0654 L 568.9361 202.2504 L 568.9396 202.6384 L 568.6728 202.8239 L 568.159 202.9349 L 568.2009 203.1756 L 568.0065 203.453 L 567.5068 203.4716 L 567.2156 203.5826 L 566.8269 203.9157 L 566.7442 204.21 L 566.161 204.6003 L 565.7806 204.6928 L 565.2173 205.248 L 564.9673 205.655 L 564.912 206.4875 L 564.317 206.9827 L 564.107 207.5793 L 564.107 208.2824 L 564.3151 208.9113 L 564.5652 209.263 L 564.662 209.6515 L 565.0092 209.9107 L 565.3419 209.855 L 565.4117 210.2799 L 565.356 210.8912 L 565.1479 210.9652 L 564.4817 210.5767 L 564.232 210.8912 L 563.9405 210.8541 L 563.9405 210.5213 L 563.5521 210.3177 L 562.4833 210.0956 L 561.1097 210.04 L 560.4995 210.0807 L 559.6526 210.2621 L 559.042 210.5396 L 558.681 210.7802 L 558.3205 211.2243 L 558.2511 211.7607 L 558.7367 212.1864 L 558.7645 212.5195 L 558.4592 212.7601 L 558.3342 213.2411 L 558.681 213.5371 L 557.7792 213.8886 L 557.3767 214.2402 L 557.3905 214.6287 L 556.3637 214.4809 L 555.4199 214.5548 L 555.0037 215.0173 L 554.6843 214.9433 L 553.4357 214.9619 L 552.3948 215.0729 L 550.2299 215.4429 L 549.1337 215.7203 L 548.4953 216.1091 L 547.8988 216.5901 L 547.8431 216.9415 L 547.2185 217.0157 L 546.3026 217.3118 L 545.262 217.7742 L 545.0398 217.9963 L 544.332 218.4219 L 544.3599 218.8475 L 543.9715 219.1435 L 543.6105 219.606 L 543.5553 220.0331 L 543.2915 220.0316 L 542.6115 220.2722 L 542.0288 220.6237 L 541.9175 220.8828 L 541.3904 220.9936 L 540.9044 221.3082 L 540.4878 221.7285 L 540.0998 222.2334 L 539.9332 223.2142 L 539.3383 223.6799 L 538.9758 224.2133 L 538.948 224.3983 L 538.462 225.0274 L 538.5177 225.2309 Z M 588.0312 170.9436 L 588.3227 171.2028 L 587.5178 171.1657 L 588.0312 170.9436 Z M 596.259 180.4395 L 596.3851 180.5835 L 596.5101 181.1202 L 596.1076 181.2127 L 595.6773 180.8613 L 595.9967 180.7845 L 596.259 180.4395 Z" fill="#eee" fill-opacity="1" stroke="#000000" stroke-width="0.4" paint-order="fill" stroke-opacity="1" stroke-dasharray="" stroke-linecap="butt" stroke-linejoin="miter" stroke-miterlimit="10" clip-path="none"/>
<path id="guerAike" class="deparment" d="M 267.6572 365.4403 L 307.2773 367.3971 L 349.9526 369.0685 L 362.2461 369.4725 L 383.9741 370.1014 L 425.2914 371.0019 L 425.304 370.9219 L 425.3707 371.6804 L 425.6482 373.0312 L 425.676 375.3071 L 425.7869 376.6762 L 425.7595 378.5265 L 425.5929 379.7848 L 425.2042 380.3212 L 424.2052 381.2649 L 423.8442 381.4313 L 423.4837 381.3206 L 423.1784 381.5241 L 422.5952 382.0605 L 422.2899 382.264 L 422.0403 382.5971 L 421.8184 382.6525 L 421.374 383.0596 L 421.374 383.3002 L 421.0687 383.9294 L 421.0413 384.5214 L 420.93 384.947 L 420.2641 385.4837 L 419.6813 385.2802 L 419.8479 384.7621 L 420.1807 384.7064 L 420.5694 384.7804 L 420.7634 384.5954 L 420.5416 384.355 L 420.0976 384.355 L 419.4035 384.466 L 418.9873 385.1691 L 418.7655 385.3727 L 417.7108 385.8166 L 417.1833 386.3161 L 416.9337 386.4272 L 416.7671 386.7417 L 416.434 386.9267 L 416.2952 387.2227 L 415.4624 388.074 L 415.3237 388.5921 L 414.7688 389.2027 L 413.8529 389.9428 L 412.8535 390.9605 L 412.5482 391.8115 L 412.3542 392.0521 L 411.9102 392.3296 L 411.1052 392.2185 L 411.3827 392.5888 L 412.0489 392.6441 L 412.6039 392.1817 L 413.0201 391.9782 L 413.2979 391.423 L 413.825 390.7938 L 414.0194 390.8124 L 414.3247 390.5349 L 415.6012 389.6283 L 416.4896 389.0362 L 416.9337 388.37 L 417.683 387.6298 L 418.4045 387.4819 L 420.2641 386.3903 L 420.5694 386.2607 L 421.735 385.502 L 421.9572 385.2802 L 421.8737 384.947 L 422.5399 384.8545 L 422.7618 385.0024 L 423.3171 385.0024 L 423.872 385.2245 L 424.4548 386.2793 L 424.5105 387.3894 L 424.677 388.555 L 424.8158 389.2581 L 425.232 390.3314 L 425.3154 391.719 L 425.4264 391.8671 L 425.7873 393.6433 L 425.9813 394.2724 L 426.0091 394.698 L 426.1757 394.8645 L 426.2313 395.7342 L 426.5919 396.7702 L 426.5919 397.0479 L 427.1194 398.6945 L 427.7578 400.0081 L 428.2019 401.3775 L 428.3684 401.4885 L 428.3406 401.951 L 428.5346 402.3951 L 428.6181 402.9872 L 428.8125 403.5978 L 428.8677 404.0234 L 429.0343 404.2455 L 429.3952 405.8923 L 429.6727 406.5397 L 429.7558 407.3909 L 430.2555 408.7232 L 430.3664 409.3152 L 430.6995 410.1293 L 430.8661 411.2766 L 431.2823 412.7011 L 431.3379 413.0713 L 431.6711 413.8669 L 431.7267 414.4589 L 431.9764 414.9956 L 432.1429 415.5505 L 432.3926 416.6792 L 433.2528 418.7331 L 433.7247 419.6397 L 433.8634 420.1024 L 434.198 420.7298 L 434.28 421.2126 L 434.4466 421.6379 L 434.6962 421.8046 L 434.5853 422.0081 L 434.9184 423.3958 L 434.8349 423.6549 L 434.5296 424.0249 L 434.4187 424.4874 L 434.2243 424.7834 L 433.6972 425.209 L 433.1419 425.394 L 432.9475 424.7651 L 432.4482 424.1913 L 432.1151 424.062 L 431.227 423.9139 L 430.8382 423.9139 L 429.9224 424.0988 L 429.3674 424.3209 L 428.7012 424.7834 L 427.9518 425.801 L 427.48 426.1713 L 426.4532 426.6152 L 425.8426 426.7448 L 425.7038 427.0408 L 425.0654 427.0039 L 423.4837 426.4302 L 422.2899 426.1342 L 421.374 425.7271 L 420.5972 425.4867 L 419.9588 425.024 L 419.9866 424.913 L 419.5701 424.5616 L 419.0151 424.432 L 418.6542 424.1913 L 417.877 423.9878 L 417.7383 423.8399 L 416.9337 423.8214 L 416.1287 423.4143 L 414.8519 423.3772 L 414.38 423.5624 L 413.9638 423.5807 L 413.5197 423.7103 L 412.7148 423.7474 L 411.8823 424.2099 L 411.5214 424.5059 L 410.883 424.728 L 410.2724 424.7094 L 409.6896 425.0611 L 409.329 425.0426 L 408.7737 425.2646 L 408.5241 425.2646 L 408.1909 425.505 L 407.6082 425.5607 L 407.1363 425.8752 L 406.7201 425.8752 L 406.1373 426.3191 L 406.0539 426.5227 L 405.582 426.5044 L 405.2489 426.7448 L 404.6383 426.8743 L 404.4165 427.1889 L 403.9168 427.2258 L 403.695 427.4293 L 404.5274 427.4293 L 404.7218 427.1333 L 405.6098 427.0964 L 406.4426 426.8004 L 407.386 426.6337 L 408.1631 426.6152 L 409.3565 427.0039 L 409.9671 426.8004 L 410.5224 426.7262 L 410.9386 426.5227 L 411.8823 426.2081 L 413.2979 425.8196 L 413.6028 425.8381 L 414.1303 425.6532 L 415.4903 425.5975 L 416.4618 425.8752 L 416.8502 426.1156 L 417.6274 426.2637 L 418.7376 426.5969 L 419.0151 426.5227 L 419.5701 426.5969 L 420.1254 426.8004 L 421.0413 427.2814 L 421.3188 427.3 L 421.624 427.522 L 422.429 427.6885 L 422.8731 427.9474 L 423.2893 428.0216 L 424.233 428.6322 L 425.3985 428.8911 L 426.1757 428.9836 L 425.9813 429.2982 L 425.4264 429.5388 L 424.7879 429.6681 L 424.4826 429.9459 L 424.4826 430.3158 L 423.6224 431.056 L 421.5684 431.7406 L 421.3466 432.018 L 421.2078 432.4251 L 421.374 432.6286 L 421.7906 432.203 L 423.5389 432.2216 L 424.0386 432.1847 L 424.5383 432.0551 L 425.0932 431.722 L 425.3707 431.1114 L 426.5366 430.7783 L 426.8694 430.4269 L 426.8694 430.1862 L 427.2303 429.5942 L 427.7022 429.2057 L 428.0353 429.0761 L 428.5624 428.6876 L 429.0343 428.2434 L 429.2843 428.262 L 429.7284 427.8549 L 429.8949 427.8549 L 430.4777 427.5589 L 430.783 427.5774 L 431.5601 426.9854 L 432.0594 427.1704 L 432.8922 427.3739 L 433.3919 427.596 L 433.9747 427.9659 L 434.4466 428.4655 L 434.8628 429.5571 L 435.1124 429.8348 L 435.2512 430.2048 L 435.3624 430.9264 L 436.2227 432.7582 L 437.4995 434.8675 L 438.6373 436.6439 L 439.6366 438.309 L 440.0528 439.1416 L 440.8022 440.5293 L 441.1631 441.2695 L 441.1631 441.4359 L 441.5793 442.0836 L 442.1343 443.2677 L 443.0502 445.0441 L 443.9108 446.9313 L 444.7989 448.6891 L 445.3538 449.5032 L 445.576 450.0213 L 445.7422 450.1692 L 446.4363 451.3165 L 446.4641 451.4461 L 447.6853 453.1853 L 447.7684 453.3889 L 448.3511 454.1105 L 448.629 454.573 L 449.5171 455.6277 L 450.1555 456.6083 L 450.4051 456.8489 L 450.6548 457.367 L 451.0988 457.8295 L 452.2091 459.3096 L 453.9021 461.5116 L 454.2631 462.048 L 454.7624 462.6403 L 455.2342 463.0657 L 455.623 463.5838 L 455.9005 463.8058 L 456.2058 464.25 L 456.5389 464.5275 L 457.0939 465.3787 L 457.5379 465.8043 L 458.0098 466.4332 L 459.314 467.969 L 459.6472 468.3021 L 460.2577 469.1348 L 460.5352 469.3569 L 461.4511 470.6149 L 462.0617 471.3551 L 462.173 471.5955 L 462.7836 472.2802 L 463.2829 472.9462 L 463.3386 473.1312 L 463.8104 473.7604 L 464.4488 474.5005 L 464.5597 474.7041 L 464.5041 475.5921 L 464.2823 475.8328 L 463.3919 476.4761 L 462.5336 477.461 L 461.923 478.5526 L 461.4789 479.0707 L 460.674 479.6999 L 460.3797 479.4778 L 460.9392 478.4518 L 460.8786 476.607 L 460.9122 475.7693 L 460.8234 475.5243 L 459.7455 475.2976 L 457.2105 475.2039 L 454.5646 475.0771 L 454.3767 475.1503 L 453.619 474.7895 L 452.894 473.7736 L 451.3561 473.3248 L 449.1077 473.0021 L 446.7675 472.6312 L 443.2388 472.1026 L 442.8131 471.989 L 440.9744 471.7451 L 439.9431 471.2857 L 438.6605 470.4101 L 437.8022 469.755 L 435.234 468.2914 L 433.6016 467.4082 L 432.7017 466.9648 L 431.9992 466.8141 L 430.94 466.7635 L 429.2451 466.1974 L 429.1002 466.0574 L 427.5371 465.4476 L 426.7257 465.2179 L 426.3049 464.9808 L 424.7247 464.3542 L 422.7065 463.4892 L 421.2486 463.1686 L 417.9757 463.2651 L 415.7258 463.3065 L 413.2892 463.3729 L 411.7802 463.4903 L 409.6808 463.4709 L 408.0057 463.0189 L 406.4666 462.4172 L 403.9366 461.5154 L 401.4645 460.5681 L 398.4443 459.4524 L 397.8752 459.2844 L 395.2808 458.2541 L 394.7125 458.0861 L 387.7364 455.4501 L 387.1536 455.2047 L 384.7066 454.3547 L 383.304 453.7944 L 381.2599 453.0923 L 374.4195 453.1991 L 372.5862 453.1856 L 370.6953 453.2153 L 369.9685 453.3137 L 369.5268 453.2377 L 368.4512 453.2631 L 366.8233 453.2085 L 364.4122 453.2636 L 360.2805 453.257 L 359.8891 453.3043 L 358.8173 453.2509 L 357.202 453.3002 L 357.0377 453.2639 L 355.1496 453.2257 L 352.3146 453.2288 L 350.9444 453.2082 L 350.5156 453.2532 L 347.4432 453.1828 L 344.2728 453.2133 L 340.0295 453.1988 L 338.9406 453.1249 L 338.0117 453.1637 L 335.2305 453.1884 L 333.6567 453.1541 L 332.8819 453.0916 L 332.0971 453.1963 L 328.5955 453.1711 L 323.5693 453.2143 L 321.0679 453.1963 L 316.5231 453.2377 L 314.4306 453.2031 L 313.2978 453.2278 L 312.0965 453.1724 L 311.6284 453.2423 L 310.6466 453.2275 L 304.3043 453.2484 L 300.1895 453.2171 L 299.8514 453.2771 L 299.298 453.2344 L 295.8303 453.2311 L 292.4781 453.1691 L 291.5866 453.1851 L 288.3816 453.1432 L 286.7682 453.1361 L 286.2521 453.0939 L 285.7292 452.8987 L 285.2939 452.5247 L 283.5082 450.4307 L 283.2197 449.8506 L 283.2075 449.2844 L 283.307 448.9539 L 284.229 448.2851 L 284.9951 447.2258 L 285.143 446.5008 L 284.949 445.4064 L 284.5434 444.4231 L 283.9511 443.7045 L 283.0105 442.9526 L 281.9215 441.7342 L 280.4789 440.3285 L 278.7195 438.7374 L 276.9541 437.2519 L 276.4197 436.7643 L 275.9962 436.5272 L 274.897 435.734 L 273.5253 434.8947 L 272.9722 434.6655 L 271.2079 434.14 L 269.261 433.8168 L 268.3634 433.522 L 267.6556 433.1615 L 267.4605 432.8446 L 267.1422 431.5589 L 265.2098 426.4076 L 265.0577 426.246 L 264.4582 425.9362 L 262.8875 426.0295 L 262.1427 426.1387 L 261.3507 426.154 L 260.8777 425.6526 L 260.5758 425.085 L 260.4398 424.512 L 260.832 423.1292 L 261.1579 422.3082 L 261.7166 421.7756 L 261.9651 421.4387 L 262.671 420.8992 L 263.6715 420.3461 L 264.2893 419.7553 L 264.8153 418.9455 L 264.9499 418.4188 L 264.9746 417.6717 L 264.7734 415.8882 L 264.9266 415.362 L 265.7488 414.0501 L 265.8021 413.6255 L 266.0072 413.133 L 265.8608 410.8944 L 265.9329 410.6848 L 265.8227 409.1206 L 265.9565 408.6086 L 266.0148 407.894 L 266.2641 406.8545 L 266.6776 406.2671 L 268.7061 404.6723 L 269.1478 403.9492 L 269.3094 403.5304 L 269.3068 402.2018 L 269.0624 401.8364 L 268.1858 401.1752 L 267.9392 401.0695 L 266.6193 400.7036 L 266.2324 400.5285 L 265.0055 399.4801 L 264.095 398.8009 L 263.8049 398.341 L 262.7335 396.308 L 262.227 394.5062 L 262.3752 393.8122 L 262.2925 393.2728 L 262.5925 392.7252 L 263.5019 392.0605 L 264.1441 391.7619 L 264.5501 391.2507 L 264.9682 390.3585 L 265.2315 389.5797 L 265.5033 389.3663 L 265.8749 389.2654 L 267.2333 389.3134 L 267.7334 389.4186 L 268.4233 389.4275 L 269.0838 389.3432 L 269.5149 388.9557 L 269.803 388.2999 L 269.8994 386.8695 L 270.1731 384.3497 L 270.4273 381.3859 L 270.5405 380.6442 L 270.6796 378.6663 L 270.6354 378.0834 L 270.7787 376.9613 L 268.3668 373.4171 L 268.0055 372.9686 L 267.2348 371.7632 L 267.0976 371.4499 L 266.4905 370.6965 L 266.1208 370.1253 L 265.9828 369.598 L 266.2389 368.4371 L 266.4954 367.7185 L 267.6572 365.4403 Z M 430.5608 424.8019 L 430.9495 425.098 L 431.0048 425.4311 L 430.7552 425.6903 L 430.2002 425.5792 L 429.8393 425.3757 L 430.5608 424.8019 Z M 431.5876 425.2832 L 431.9764 425.4311 L 431.6154 425.6346 L 431.5876 425.2832 Z M 426.2866 429.4646 L 426.2866 429.6867 L 425.9813 429.9273 L 425.676 429.7977 L 425.8704 429.5388 L 426.2866 429.4646 Z" fill="#eee" fill-opacity="1" stroke="#000000" stroke-width="0.4" paint-order="fill" stroke-opacity="1" stroke-dasharray="" stroke-linecap="butt" stroke-linejoin="miter" stroke-miterlimit="10" clip-path="none"/>
<path id="lagoArgentino" class="deparment" d="M 267.6572 365.4403 L 268.3562 364.0691 L 268.4477 363.6011 L 267.8412 362.8485 L 267.1963 362.5814 L 266.0205 362.4216 L 265.0558 361.4331 L 264.5215 361.1422 L 263.8789 361.0738 L 262.2472 361.4357 L 261.6957 361.3572 L 260.9105 361.0507 L 259.7137 360.292 L 259.2232 360.1248 L 258.6461 360.1362 L 257.439 360.5827 L 255.9057 361.2687 L 255.3339 361.6468 L 254.9639 361.9754 L 254.4192 362.6754 L 253.1069 364.5507 L 252.531 364.958 L 252.2188 365.0306 L 251.5774 364.9453 L 250.7084 364.5705 L 249.898 364.1388 L 248.936 363.376 L 248.056 362.9237 L 247.7126 362.5202 L 246.4891 361.4654 L 245.9235 361.1394 L 245.463 361.0492 L 244.6093 361.5452 L 243.4635 362.0839 L 242.8354 362.2574 L 240.2528 363.1463 L 239.1574 363.7022 L 238.9771 363.9045 L 237.6095 364.8856 L 236.9216 365.5132 L 235.8475 366.4208 L 234.2295 368.1339 L 233.2317 368.9852 L 232.3219 369.8422 L 230.492 370.8823 L 229.0982 371.4926 L 228.2558 371.8031 L 227.7218 371.9047 L 226.6927 371.8969 L 225.7227 371.6326 L 224.7737 371.1554 L 224.1623 370.5486 L 223.9199 369.8593 L 223.8281 368.9201 L 223.9108 368.2381 L 224.0571 367.8354 L 224.3567 366.1893 L 224.2671 365.8011 L 224.3937 365.0299 L 224.2359 364.0254 L 223.9454 363.0883 L 223.7011 362.8119 L 221.5724 361.1219 L 220.5605 359.829 L 220.1123 358.8655 L 219.8058 357.9271 L 219.7254 356.6983 L 219.5981 353.5099 L 219.7342 351.8984 L 219.8794 351.3124 L 220.0212 350.3898 L 220.0261 349.5798 L 220.086 349.1407 L 220.0532 347.9764 L 219.4857 344.8947 L 218.8598 343.0014 L 218.1459 341.285 L 217.3044 339.6054 L 217.2609 339.3119 L 216.6031 338.1494 L 216.0028 337.5109 L 215.176 336.8104 L 214.0795 335.9528 L 212.1395 334.5758 L 211.2274 333.8529 L 210.2936 333.3574 L 209.5904 332.8785 L 208.4248 332.198 L 207.3683 331.5094 L 206.4345 330.6612 L 205.8776 329.9782 L 205.894 329.0927 L 206.0697 328.2186 L 206.3525 327.7043 L 206.7058 327.3783 L 206.6868 327.2088 L 207.8733 325.6593 L 208.5674 324.3949 L 209.1738 323.4758 L 209.8213 322.3149 L 209.9704 321.6989 L 210.0241 320.7855 L 209.8713 320.1629 L 209.6506 319.8717 L 208.5483 318.7824 L 206.5797 317.1094 L 205.5304 316.0384 L 205.1546 315.3536 L 205.1226 314.9534 L 205.238 314.6866 L 206.1086 314.1393 L 207.0767 313.1402 L 207.4388 312.5245 L 207.4746 312.1601 L 206.9734 311.4814 L 206.8007 311.0711 L 206.7489 310.5169 L 207.4868 309.5013 L 208.1435 308.7695 L 208.6261 308.3614 L 209.5679 307.9713 L 210.5062 307.4283 L 211.1805 306.8655 L 211.3112 306.6152 L 211.1999 306.118 L 210.2292 304.4422 L 209.6849 303.669 L 209.1234 303.0779 L 208.1908 301.9391 L 207.0508 300.9382 L 206.2126 300.1119 L 205.8643 299.5206 L 205.796 298.5982 L 205.9489 298.1202 L 206.5641 297.2484 L 207.2631 296.7804 L 207.4914 296.4302 L 207.6023 295.4751 L 207.1956 294.0389 L 206.1345 292.2638 L 205.4782 291.5882 L 204.9434 291.2886 L 204.0878 290.6747 L 203.7371 290.2969 L 203.4897 289.5907 L 203.5431 289.2274 L 203.7744 288.8472 L 205.5597 287.8796 L 206.1886 287.3912 L 206.5995 286.2448 L 206.601 285.3277 L 206.4505 284.8886 L 206.2687 284.0496 L 206.2408 283.2528 L 206.415 282.7306 L 206.8594 282.1365 L 207.5741 281.4713 L 208.7465 280.6104 L 209.2149 280.1251 L 209.7154 279.1227 L 209.8785 278.5233 L 209.8091 277.9681 L 209.2222 276.7784 L 209.1166 276.2361 L 209.117 275.6852 L 209.306 275.1798 L 209.5648 274.8627 L 210.5104 274.1375 L 211.0094 274.0519 L 213.443 274.0768 L 214.1058 274.1093 L 216.3523 274.0733 L 217.8738 274.1063 L 219.1038 274.072 L 219.9754 274.1187 L 224.7748 274.1365 L 225.6941 274.0478 L 225.8573 273.6011 L 225.7837 272.0987 L 225.9129 271.8326 L 227.3052 271.731 L 227.5785 271.6126 L 228.1811 271.532 L 228.2627 271.0185 L 225.4315 270.7756 L 224.6372 270.6589 L 224.2976 270.5433 L 224.0369 270.1431 L 223.7415 269.3587 L 223.7617 268.5652 L 224.0396 267.8212 L 224.1791 267.2505 L 224.4653 266.415 L 225.1773 265.1209 L 225.8523 264.0372 L 226.5887 263.2335 L 227.407 262.6793 L 227.7173 262.3345 L 228.4178 261.9244 L 228.6717 261.6215 L 228.6084 261.159 L 228.0896 259.9467 L 228.0957 259.4891 L 228.3023 258.9382 L 229.7495 257.5722 L 230.5903 256.5456 L 231.2631 255.248 L 231.6751 254.7265 L 232.6028 253.2934 L 232.74 252.9212 L 233.343 252.397 L 234.6309 251.5994 L 235.0539 251.1395 L 235.3105 250.5919 L 235.9546 249.7805 L 236.5103 249.5887 L 237.0462 249.6253 L 238.1694 249.8995 L 239.3407 250.0237 L 240.2859 249.9495 L 241.1004 249.7747 L 242.8221 249.1557 L 243.1704 249.1331 L 243.8291 248.7492 L 244.3672 248.5555 L 245.5484 247.931 L 246.1171 247.5712 L 247.7972 246.1693 L 249.6286 244.5934 L 250.1965 244.2333 L 250.6504 243.7739 L 251.6334 242.9974 L 252.4715 242.2877 L 253.2091 241.5409 L 254.0121 240.8292 L 254.8518 239.4474 L 255.1251 238.6409 L 255.1556 237.8339 L 254.8773 235.9236 L 254.774 234.8488 L 254.7424 233.9615 L 254.9128 232.9197 L 254.9974 231.8718 L 254.8164 229.8456 L 254.6479 228.9347 L 254.3068 227.3867 L 254.1978 226.6015 L 253.9393 225.9594 L 253.6199 224.7944 L 253.2979 223.8733 L 252.7624 222.1909 L 252.4883 220.6933 L 252.4456 218.676 L 252.693 218.1731 L 253.1607 217.8131 L 283.1911 242.6938 L 312.2775 266.2567 L 333.5752 266.6727 L 353.2137 266.9631 L 352.1606 302.1304 L 351.975 308.2244 L 351.1761 334.1489 L 350.7008 334.5982 L 350.3185 344.5148 L 350.7492 344.9369 L 349.9526 369.0685 L 307.2773 367.3971 L 267.6572 365.4403 Z" fill="#eee" fill-opacity="1" stroke="#000000" stroke-width="0.4" paint-order="fill" stroke-opacity="1" stroke-dasharray="" stroke-linecap="butt" stroke-linejoin="miter" stroke-miterlimit="10" clip-path="none"/>
<path id="lagoBuenosAires" class="deparment" d="M 288.8168 135.9463 L 289.4286 135.4521 L 289.8517 134.6928 L 289.9508 134.0423 L 290.205 132.9558 L 290.2008 132.0266 L 289.9572 130.5241 L 289.6119 129.3829 L 289.2773 129.0491 L 289.0307 128.6275 L 288.4955 127.9503 L 287.9661 127.5019 L 287.1105 126.9024 L 285.5897 126.2288 L 285.1918 126.1513 L 284.4908 125.802 L 283.7426 125.0689 L 283.3413 124.0921 L 283.2807 123.3281 L 283.3787 122.7076 L 283.7617 122.4039 L 284.1722 122.2083 L 284.423 122.2037 L 285.9449 121.8266 L 286.5483 121.4406 L 286.6531 121.0186 L 286.5223 120.2601 L 286.1401 118.9403 L 285.9666 117.7448 L 285.8058 117.296 L 285.146 116.4911 L 285.0374 115.9989 L 285.0069 115.2816 L 285.167 113.7649 L 285.3724 112.6613 L 285.5992 112.1224 L 286.3039 111.0249 L 286.4926 110.5757 L 286.2616 109.5451 L 285.9468 108.846 L 285.7433 107.6033 L 286.2117 106.892 L 286.7061 106.6385 L 287.5495 106.3999 L 289.4114 106.4019 L 290.5796 106.313 L 291.3179 106.176 L 292.0505 105.8101 L 292.5364 105.388 L 293.9406 104.5312 L 294.8306 103.6381 L 295.2864 103.2264 L 295.7792 102.2248 L 296.5347 101.6739 L 297.8069 100.6862 L 298.748 100.0512 L 299.6258 99.7029 L 299.9021 99.4546 L 300.0042 99.0168 L 299.9421 98.5208 L 299.7184 97.48 L 299.8137 96.5081 L 299.6856 95.6805 L 299.107 94.5757 L 298.9161 93.6846 L 298.514 92.7236 L 298.4396 92.1872 L 298.8528 90.4207 L 299.0632 89.1032 L 298.9466 87.6818 L 299.0453 87.3502 L 297.3671 83.9755 L 296.9078 82.4944 L 296.8331 81.973 L 296.4561 80.8456 L 296.2195 79.5705 L 296.046 79.045 L 295.6687 77.2468 L 295.5608 75.337 L 295.6146 72.7937 L 295.4309 71.8106 L 295.4084 71.2303 L 295.1225 70.3041 L 294.4986 69.2267 L 294.0778 68.7218 L 293.5556 68.2736 L 293.2675 68.1092 L 292.4419 67.4803 L 291.3709 66.826 L 291.1723 66.8481 L 290.3136 66.5683 L 290.0136 66.312 L 289.3981 65.4323 L 288.7917 64.7205 L 287.742 63.6538 L 287.8682 63.0956 L 288.106 62.9381 L 288.8226 62.7399 L 289.7015 62.5788 L 290.2115 62.5696 L 290.9253 62.4166 L 291.9746 62.1255 L 292.5547 62.0269 L 293.3102 61.6925 L 293.516 61.5179 L 294.446 60.9467 L 295.3173 60.2355 L 296.1611 59.4008 L 296.9661 57.6345 L 297.5767 56.8512 L 297.9319 56.2711 L 298.8318 55.2552 L 299.0822 54.808 L 299.67 54.1453 L 299.9917 53.9295 L 305.0197 53.4996 L 310.3912 53.4546 L 320.4954 53.428 L 331.5894 53.3703 L 341.1291 53.3334 L 347.1886 53.2999 L 356.1764 53.3266 L 356.604 53.3078 L 357.356 53.3779 L 362.5137 53.4638 L 372.829 53.6162 L 383.1455 53.7443 L 393.4635 53.847 L 399.3968 53.8947 L 399.0846 70.0332 L 398.7679 86.377 L 397.881 130.9065 L 396.8355 135.7948 L 396.755 140.2298 L 395.4954 208.2268 L 393.0675 207.2251 L 369.7471 176.4679 L 343.8162 141.4698 L 303.7196 144.3993 L 288.8168 135.9463 Z" fill="#eee" fill-opacity="1" stroke="#000000" stroke-width="0.4" paint-order="fill" stroke-opacity="1" stroke-dasharray="" stroke-linecap="butt" stroke-linejoin="miter" stroke-miterlimit="10" clip-path="none"/>
<path id="magallanes" class="deparment" d="M 498.3159 282.9377 L 447.7173 283.6324 L 441.0457 283.6802 L 440.8361 274.4846 L 394.3249 274.5814 L 394.1373 274.5799 L 394.3047 267.2823 L 395.2865 219.1623 L 395.4954 208.2268 L 414.4326 215.9688 L 432.5058 214.6519 L 448.9911 213.3834 L 465.3845 212.0583 L 472.8725 216.3846 L 501.3193 192.8783 L 502.7536 194.2565 L 504.4676 194.2984 L 519.7721 214.1892 L 523.5104 219.0043 L 538.0679 225.4324 L 538.5177 225.2309 L 538.6564 225.8784 L 538.3511 226.3779 L 537.2827 226.8592 L 536.8387 226.896 L 536.4362 227.0996 L 535.9365 227.1738 L 535.4788 227.0996 L 534.285 227.1367 L 533.0917 227.4327 L 532.4811 227.6733 L 531.3571 228.3764 L 530.9546 228.876 L 530.9409 229.2274 L 530.025 229.838 L 528.9147 230.1711 L 528.2488 230.7446 L 527.9988 231.0777 L 527.097 231.5404 L 526.5973 231.744 L 525.8202 232.225 L 525.487 232.5949 L 525.0846 233.2795 L 525.1958 233.7051 L 525.0708 233.8718 L 524.8764 234.8894 L 524.6962 235.2594 L 524.5574 236.6285 L 524.0715 237.0541 L 523.794 237.2022 L 522.92 238.0717 L 522.5869 238.6455 L 522.4203 239.1265 L 522.5175 239.7371 L 522.2538 240.1627 L 522.2397 240.6991 L 522.4897 240.9583 L 521.4073 241.9203 L 521.3101 242.383 L 521.0463 242.6605 L 520.4914 242.9565 L 519.8114 243.6781 L 519.3811 243.6781 L 518.5067 243.8817 L 516.7721 244.4369 L 515.5094 245.0289 L 514.1636 245.806 L 513.4973 246.2687 L 511.4018 247.6006 L 510.0834 248.674 L 508.9457 249.5249 L 507.5858 250.7278 L 507.3914 251.0424 L 507.4051 251.4124 L 505.5733 253.4662 L 505.1156 253.7808 L 504.4912 254.4282 L 503.9222 255.372 L 503.6863 255.6126 L 503.3947 256.149 L 503.1588 256.9817 L 503.0478 257.1298 L 502.9922 257.8883 L 502.4929 259.3686 L 502.2013 259.6647 L 502.215 260.2382 L 502.0763 260.5527 L 501.5214 260.7934 L 501.0636 261.2187 L 500.5639 262.0329 L 500.3139 262.6991 L 500.3002 263.3282 L 500.5224 263.8093 L 501.4657 264.0313 L 501.2717 264.3088 L 501.3963 264.9009 L 501.6601 265.1783 L 501.6601 265.4004 L 501.2439 266.011 L 500.897 266.0667 L 500.3974 266.5291 L 499.9118 266.5106 L 499.3843 266.6587 L 499.1483 266.8991 L 498.9402 266.8991 L 498.8152 267.2322 L 498.7321 267.8057 L 498.4127 268.0463 L 498.8293 269.4525 L 498.76 269.73 L 498.4684 269.8781 L 498.7874 270.3223 L 499.9811 270.4148 L 500.3417 270.1556 L 500.6192 270.1556 L 501.327 269.9521 L 501.4935 269.9706 L 501.6601 270.6368 L 501.6742 271.2474 L 501.9654 271.7099 L 501.9376 272.5426 L 501.9795 273.0975 L 501.7573 273.7452 L 501.577 274.0041 L 501.0358 275.1885 L 500.9245 275.7991 L 500.6748 276.7425 L 500.4389 277.3348 L 499.7452 278.5004 L 499.7452 278.6668 L 499.1483 279.5366 L 498.7737 280.4618 L 498.718 281.3313 L 498.5099 282.0715 L 498.5099 282.386 L 498.3159 282.9377 Z" fill="#eee" fill-opacity="1" stroke="#000000" stroke-width="0.4" paint-order="fill" stroke-opacity="1" stroke-dasharray="" stroke-linecap="butt" stroke-linejoin="miter" stroke-miterlimit="10" clip-path="none"/>
<path id="rioChico" class="deparment" d="M 253.1607 217.8131 L 253.6382 217.5473 L 255.2566 216.4605 L 255.9651 216.2006 L 256.6695 215.5582 L 257.3849 214.7799 L 258.1628 214.5086 L 259.4781 214.6064 L 260.4638 214.5307 L 262.3623 213.7646 L 262.7068 213.526 L 263.1394 212.6071 L 263.2096 211.9251 L 263.3971 211.2808 L 263.9406 210.6887 L 264.4597 210.4158 L 264.8801 210.3043 L 265.4484 210.2781 L 266.4394 210.7812 L 266.8606 210.8831 L 267.3107 210.8343 L 267.5695 210.5906 L 267.6861 210.1856 L 266.8526 208.0761 L 266.6586 207.698 L 266.133 206.9489 L 265.9908 206.3454 L 266.0453 205.8606 L 266.9391 203.5816 L 266.9757 202.6536 L 266.7272 198.9631 L 266.5919 198.0545 L 266.3742 197.3092 L 265.8082 195.7798 L 265.6931 195.0559 L 265.788 194.4821 L 265.6943 193.2566 L 265.8143 192.5777 L 265.6089 191.696 L 264.8691 191.3296 L 264.1514 191.3463 L 263.4245 191.2556 L 262.9229 190.9039 L 262.5334 190.2087 L 262.259 188.9103 L 262.1858 188.3111 L 261.6739 187.4403 L 260.6849 187.0122 L 260.2313 186.7728 L 260.051 186.4636 L 258.252 184.689 L 256.8974 183.1786 L 256.3848 182.0883 L 256.1618 180.9817 L 256.2022 180.5878 L 256.6409 179.4823 L 257.2138 178.6877 L 257.8526 177.9117 L 258.4632 177.3318 L 258.8725 176.7118 L 258.8698 176.4682 L 259.7659 173.2986 L 260.1017 172.4771 L 260.6993 171.2267 L 260.7131 170.9835 L 261.1236 170.0286 L 261.9167 168.3 L 262.5746 167.1436 L 263.4474 165.4787 L 263.84 164.8122 L 264.9541 163.0366 L 266.014 161.6088 L 266.3033 160.9675 L 266.792 160.0761 L 267.0279 159.4782 L 267.0504 158.4743 L 267.7429 156.3434 L 267.895 155.4218 L 267.9064 153.7016 L 267.6507 153.1568 L 267.2486 152.8186 L 265.9149 152.2847 L 265.4858 151.8235 L 265.4381 150.8773 L 265.7228 150.007 L 266.1798 149.0534 L 266.6063 148.6466 L 267.2832 148.2822 L 268.4335 147.8474 L 269.9951 147.5837 L 270.7742 147.482 L 271.5791 147.2137 L 272.1341 147.2084 L 273.1948 147.8042 L 273.9278 147.9285 L 274.6603 147.7481 L 275.0258 147.5204 L 275.4394 147.0211 L 275.5427 146.66 L 276.1369 145.2854 L 276.2425 144.8788 L 276.7345 144.474 L 278.2454 143.5351 L 279.0976 142.6588 L 279.4997 141.7168 L 280.0554 140.7205 L 281.1268 139.4724 L 281.3483 139.0859 L 281.7698 138.0682 L 281.8907 137.6779 L 281.6467 136.5556 L 281.1604 135.59 L 280.9626 134.8808 L 280.9854 134.44 L 281.2137 133.9168 L 281.904 133.5202 L 282.4662 133.6663 L 283.137 133.9691 L 283.655 134.3262 L 284.0388 134.3579 L 284.5446 134.6229 L 284.6696 134.796 L 286.1191 135.619 L 286.7312 135.7814 L 287.8015 136.1612 L 288.3538 136.1691 L 288.8168 135.9463 L 303.7196 144.3993 L 343.8162 141.4698 L 369.7471 176.4679 L 393.0675 207.2251 L 395.4954 208.2268 L 395.2865 219.1623 L 394.3047 267.2823 L 360.1666 267.0447 L 353.2137 266.9631 L 333.5752 266.6727 L 312.2775 266.2567 L 283.1911 242.6938 L 253.1607 217.8131 Z" fill="#eee" fill-opacity="1" stroke="#000000" stroke-width="0.4" paint-order="fill" stroke-opacity="1" stroke-dasharray="" stroke-linecap="butt" stroke-linejoin="miter" stroke-miterlimit="10" clip-path="none"/>
<path d="M -5 -5 L 5 -5 L 5 5 L -5 5 L -5 -5 Z" fill="none" fill-opacity="1" stroke="#ccc" stroke-width="0" paint-order="fill" stroke-opacity="1" stroke-dasharray="" stroke-linecap="butt" stroke-linejoin="miter" stroke-miterlimit="10" transform="matrix(1,0,0,1,795,266.5)" clip-path="none"/>
<path fill="rgba(255,255,255,0)" fill-opacity="0" stroke="#ccc" stroke-width="0" paint-order="fill" stroke-opacity="1" stroke-dasharray="" stroke-linecap="butt" stroke-linejoin="miter" stroke-miterlimit="10" transform="matrix(1,0,0,1,15,10)" clip-path="none"/><defs><filter id="f1" x="-100%" y="-100%" width="1000%" height="1000%"><feOffset result="offOut" in="SourceGraphic" dx="-9.799999999999999" dy="9.799999999999999"></feOffset><feColorMatrix result="matrixOut" in="offOut" type="matrix" values="0.2 0 0 0 0 0 0.2 0 0 0 0 0 0.2 0 0 0 0 0 1 0"></feColorMatrix><feGaussianBlur result="blurOut" in="matrixOut" stdDeviation="8"></feGaussianBlur><feBlend in="SourceGraphic" in2="blurOut" mode="normal"></feBlend></filter></defs>
</svg>