<?xml version="1.0" encoding="utf-8"?>
<!-- Generator: Adobe Illustrator 24.0.2, SVG Export Plug-In . SVG Version: 6.00 Build 0)  -->
<svg version="1.1" id="map" xmlns="http://www.w3.org/2000/svg" xmlns:xlink="http://www.w3.org/1999/xlink" x="0px" y="0px"
	 viewBox="0 0 411.2 492.9" style="enable-background:new 0 0 411.2 492.9;" xml:space="preserve">
<style type="text/css">
	 @import url('../styles.css');
</style>
<script type="text/javascript" src="../main.js"></script>
<g>
	<path d="M230.9,350.9L230.9,350.9l-41.3-0.8l-21.7-0.6l-12.3-0.4l0.8-24.1l-0.4-0.4l0.4-9.9l0.5-0.4l0.8-25.9l0.2-6.1l1.1-35.2
		l7,0.1l34.1,0.2l-0.2,7.3l0.2,0l46.5-0.1l0.2,9.2l6.7,0l50.6-0.7l-0.2,0.8l-0.1,0.8l-0.2,1v1.1l-0.1,0.5l-0.2,0.7l-0.2,0.9
		l-0.1,0.8l-0.1,0.5l-0.2,1.3v0.6l-0.1,0.7l0,1l-0.1,0.9l-0.2,0.5l-0.4,0.6l0.2,1.3l-0.3,1.2l0.3,0.6l0,1.1l-0.3,1.6v1.2l-0.2,0.7
		l0,0.5l-0.2,0.9l0,0.3l-0.3,0.8l-0.5,1.2v0.2l-0.3,0.5l-0.2,0.6l-0.2,0.1l-0.3,0.8l-0.1,0.1l-0.2,0.7l-0.5,1l-0.3,1.2l-0.6,1.2
		l-1,1.6l-0.5,0.6l-0.3,0.8l-0.9,1.2l-0.7,0.6l-1,0.9l-1.4,1.2l-0.6,0.4l-1.3,0.8l-0.6,0.6l-0.6,0.6l-0.7,0.5l-0.2,0.1l-0.6,0.4
		l-1.6,1l-2.8,1.2l-1.1,0.5l-1.4,0.7l-1.2,0.4l-1.2,0.3l-2,0.3l-1-0.1l-1.3,0l-1.5,0.1l-0.7,0.1l-0.8-0.1l-0.7,0.9l0.3,0.4l0.1,0.8
		l-0.1,0.5l-0.3,0.4l-1.1,0.7l-0.9,0.6l-1.1,0.4l-1.7,0.6l-0.4,0.2l-2,0.6l-1.2,0.4l-0.4,0.3l-0.9,0.4l-1.4,0.5l-0.7,0.4l-0.9,0.3
		h-0.2l-0.5,0.3l-0.8,0.3l-1.2,0.5l-0.6,0.4h-0.2l-0.9,0.4h-0.2l-1.1,0.5l0,0.3l-0.7,0.2l-0.9,0l-0.5,0.1l-0.6,0.4l-0.8,0.5v0.3
		l-0.8,0.4l-1.2,0.4l-0.6,0.2l-0.5,0.3l-0.8,0.7l0.3,0.7l-0.3,0.2l-0.2,0.3l0.2,0.1v0.4l-0.3-0.2l-0.3,0.2l-0.4,0l-0.3,0.1l-0.2,0.3
		l-0.7,0.7l0.1,0.4l-0.2,0.1l-0.4,0.4l-0.4,0.3l-0.9,1.1l-0.5,0.8l-0.4,0.4l-0.1,0.3l-0.5,0.9l-0.3,0.7l-0.3,0.6l-0.7,0.9l-0.3,0.5
		l-0.4,0.4l-0.1,0.3l-0.1,0.7l-0.3,0.5l-0.2,0.8l-0.9,1.4l-0.3,0.4l0.1,0.3l-0.3,0.2v0.6l-0.1,0.4v0.6l-0.5,1.7l-0.1,0.5l-0.8,2v0.2
		l-0.6,0.9l-0.3,0.9v0.6l-0.1,0.9l-0.5,1.1l-0.1,0.5v1.2l0.1,0.8L230.9,350.9z"/>
	<path d="M344.1,205.2l-0.4,0.2l-14.6-6.4l-3.7-4.8l-15.3-19.9l-1.7,0l-1.4-1.4l-28.4,23.5L271,192l-16.4,1.3l-16.5,1.3l-18.1,1.3
		l-18.9-7.7l1.3-68l0.1-4.4l1-4.9l0.9-44.5l0.3-16.3l0.3-16.1l9.5,0.1l4.2,0l6.1,0l10.3,0l10.9,0l4.6,0l4.1,0l6.2,0l5.2,0l7.2-0.1
		l8.3-0.1l10.3-0.1l6.8-0.1l9.5-0.1l0.1,0.7l0.4,0.3l-0.4,0.3l0.3,0.5l-0.3,0.1l-0.3,0.5l0.2,0.3l-0.2,0.1l0,0.3l-1.3,0.3l-0.1,0.3
		l0,0.6l0.7,0.1l-0.1,0.5l-0.6,0.4l-0.1,0.4v0.8l0.1,0.5l-0.1,0.3l0.1,0.3l-0.1,0.3l0,0.6l0,1.6l0.1,1.1l0.3,2.4l0.2,1.4l0.3,1.2
		l0.3,1.1l0.6,2.4l0.4,1l0.5,1.5l0.5,1.3l0.4,0.8l0.2,0.6l0.3,0.5l0,0.2l0.3,0.6l0,0.3l0.4,0.5l0.3,0.8l0.7,1.2l0,0.4l0.7,1l0.3,0.6
		l0,0.6l0.4,0.5l0.1,0.5l0.3,0.3l0.6,1l0.2,0.7l0.2,0.3l0.4,0.7l0.3,0.9l0.6,0.9l0.5,0.5l0.1,0.2l0.7,0.6l0.2,0.6l0.2,0.4l0.8,0.8
		l0.6,0.4l0.8,0.7l0.6,0.3l1.1,0.4l1.2,0.2l0.5,0.2l0.4,0.4h0.7l0.3,0.1l0.4,0.3l0.2,0.4l0.3,0.7l0.4,0.5l0.5,0.2l0.5,0.3l0.6,0.6
		l0.5,0.2l0.4,0l0.2-0.3l0.6,0.2l0.5,0.3l0.2,0.2l0,0.3l0.4,0.1l0-0.3l0.4,0.2l0.1,0.3l0.3,0.5l0,0.4l0.4,0.7l0.5,0.3l0.3,0.6
		l0.3,0.4l0.3,0.2l0.6,1.1l0.6,0.6l0.6,0.4l0.4,0.8l0.6,0.7l0.8,0.6l0.9,0.4l0.4,0.3l0.2,0.5l0.3,0.4l0.6,0.4h0.6l0.3,0.1l0.2,0.4
		l0.5,0.4l0,0.3l0.2,0.3l0.6,0.5l0.2,0.5l0.7,0.9l0.2,0.4l0.2,0.3l0.3,0.2l0.3,0.8l0.4,0.4l0.6,0.1l0.2-0.1l0.2,0.3l-0.1,0.5
		l0.3,0.5l0.4,0.4l0.8,0.7l0.1,0.2l0.5,0.3l0.5,0.4l0.5,0.6l0.1,0.3l0.3,0.3l1,0.7l1,0.6l1.4,0.7l0.7,0.3l0.7,0l1.1-0.4l0.5,0
		l0.3,0.2l0.2,0.4l0.5,0.4l0.7,0.1l0.7-0.1l0.5-0.3l0.5,0l0.5,0.3l0.6-0.1l0.3,0.2l0.6,0l0.6-0.1l0.2-0.1l0.6-0.1l0.6-0.2l0.8,0.1
		l1.1,0.3l0.8,0.1l0.8,0.4l0.8,0.1l0.3,0.2l0.7,0.1l0.6,0.2l1,0.3l1.2,0.3l1,0.1l0.2,0.1l1,0.1l0.5-0.1l0.5,0.1l0.3,0.2l0.8,0.1
		l0.8,0l1.2,0.3l0.6,0.2l0.9,0.1h0.7l0.9-0.4l0.4,0l0.8,0.1l1.1-0.1l0.1,0.1l0.7,0.1l0.7-0.3l0.6-0.4l0.5-0.1l0.5,0l0.8-0.1l1.2,0.2
		l0.6-0.1l0.3,0l0.4,0.2l0.7-0.3l0.3,0.2l0.4,0l0.4,0.2l0.4,0l0.4,0.1l0.1,0.2l0.6,0.2l0.3,0.3l0.3,0.1l0.8,0.4l1.1-0.1l0.1,0.2
		l0.3,0.5l0.5,0.1l0.2,0.2l-0.1,0.3l0,0.6l0.3,0.7l0.4,0.5l0.4,0.4l1,0.7l0.5,0.7l0.8,0.8l0.6,0.6l0.2,0.1l0.9,0.7l0.7,0.2l-0.2,0.2
		l-0.2,0l-0.5,0.5l-0.1,1l0.2,0.7l0.3,0.6l0,0.6l0.2,0.7l0.3,0.6l0.1,0.4l0.1,0.6l0.1,0.2l0.3,1.2l0,0.2l0.3,0.9l0,1.4l-0.1,0.1
		l0,0.8l-0.2,0.8l-0.1,0.6l0,2.2l-0.1,0.7l-0.1,1.1l-0.1,0.9l-0.3,1.2l-0.1,2.1l0,0.3l-0.3,0.6l-0.1,0.4l-0.3,1.2l-0.1,0.6l-0.2,0.8
		l-0.4,1.3l-0.3,0.4l-0.3,0.7l-0.1,0.7l-0.6,2l-0.4,0.8l-0.4,1.1l-0.2,0.3l-0.3,0.7l-0.2,0.7l-0.3,0.7l-0.2,0.7l-0.1,0.2l-0.5,1.2
		l0.2,0.5l-0.5,0.1l-0.1,0.4l-1.3,0.1l-0.4,0.2l-0.6,0.2l0.1,0.5l0.6,0.2v1l0.3,0.5l0,0.5l0.2,0.2l0,0.4l0.2,0.5l0.2,0.7l0.1,0.6
		l0,1.1l0.2,0.6l0,0.7l0.3,0.3l0.5,1.1l0.1,0.2l0.4-0.1l0.4,0.6l0.3,0.1l0.5-0.1l0.4,0.1l0.4-0.1l0.3,0.1l0.2,0.3l0.6,0.1l0.2,0.2
		l0.3,0l-0.2,0.4l-0.4,0.1l-0.1,0.2l-0.5-0.1l-0.3,0.6l0.3,0.3l-0.4,0.3l0.3,0.1l0,0.4l1-0.1l0.2,0.3l-0.4,0.2l-0.3-0.2l-0.6,0.1
		l-0.5-0.1l-0.2,0.6l-0.4,0.1l-0.1-0.2l-1,0.5l0-0.2l-0.5-0.1l0.1-0.2v-0.4l0.2-0.3l-0.1-0.4l-0.9-0.2l-0.2,0.2l-0.3,0.1l-0.2-0.3
		l-0.2-0.1l-0.8-0.1l-0.2-0.1h-0.4l-0.6,0.2l-0.4,0.2l-0.6,0.5l-0.6,0.9l-0.3,1l0,0.4l0.2,0.2l0.4-0.1l0.1,0.4l0.5-0.1l0.2,0.4
		l-0.1,0.3l-0.3,0.1l0,0.3l-0.5,0v0.4l0.6,0.2l-0.2,0.3l-0.6,0.1l-0.3-0.2l-0.1,0.4l0.6,0.5l0.1,0.3l-0.3,0.1l-0.5,0.3l0,0.3
		l-0.4,0.3l-0.3,0l-0.1,0.3l0.4,0.9l0.3,0.5l0.5,0l0,0.3l0.3,0.2l0.6,0l0.5,0.1l0.3,0.2l0.5,0.7l0.5,0.7l-0.2,0.1l-0.4-0.3l-0.2,0.2
		l-0.3-0.2l-0.2,0.4l0.2,0.1l-0.4,0.4l-0.1,0.2l-0.4-0.1l-0.4-0.2l-0.1,0.3l0.2,0.3l-0.5,0l0-0.3l0.2-0.2l-0.3-0.6l-0.7-0.2
		l-0.4,0.1l-0.4-0.1l-0.4,0.3l0.1,0.3l-0.3,0.1l-0.1-0.3l-0.4,0.1l-0.1-0.2l-0.4,0.1l-0.2,0.3l-0.9-0.3h-0.4l-0.5,0.1l-0.2,0.2
		l-0.1,0.7l-0.2-0.1l0-0.4l-0.4-0.2l-0.6,0.1l-0.4,0.3l-0.4,0.1l0,0.2l-0.6,0.1l-0.5,0.3l-0.3,0.4l-0.1,0.3l0.2,0.3l-0.6,0.2
		l0.2,0.5l-0.2,0.2l-0.1,0.7l-0.7,0.5l-0.2,0l-0.4,0.7l0.4-0.1l0.1,0.5l-0.5,0.5l-0.4,0.1l-0.4-0.1l-0.3,0.1l-0.5-0.1l-0.2,0.1
		l-0.2,0.3l-0.9-0.1l-0.7,0.5l-0.4,0.7l-0.5,0.2l-0.1,0.2l0.1,0.4l-0.4,0.2l0,0.4l-0.3,0.2l-0.5,0.1l0,0.2l-0.2,0.3l-0.5,0l-0.3,0.1
		l-0.4,0.3l-0.1,0.3l-0.6,0.4l-0.4,0.1l-0.6,0.6l-0.3,0.4l-0.1,0.8l-0.6,0.5l-0.2,0.6v0.7l0.2,0.6l0.3,0.4l0.1,0.4l0.3,0.3l0.3-0.1
		l0.1,0.4l-0.1,0.6l-0.2,0.1l-0.7-0.4l-0.2,0.3l-0.3,0v-0.3l-0.4-0.2l-1.1-0.2l-1.4-0.1l-0.6,0l-0.8,0.2l-0.6,0.3l-0.4,0.2l-0.4,0.4
		l-0.1,0.5l0.5,0.4l0,0.3l-0.3,0.2l-0.1,0.5l0.3,0.3l-0.9,0.4l-0.4,0.4l0,0.4l-1-0.1l-0.9,0.1l-0.4,0.5l-0.3-0.1l-1.2,0l-1,0.1
		l-2.2,0.4l-1.1,0.3l-0.6,0.4l-0.6,0.5l-0.1,0.4l-0.6,0.1l-0.9,0.3l-1,0.5l-0.2,0.2l-0.7,0.4l0,0.4l-0.4,0.3l-0.4,0.5l-0.1,0.4
		l-0.3,0l-0.7,0.2l-0.6,0.4l-0.1,0.3l-0.5,0.1l-0.5,0.3l-0.4,0.4l-0.4,0.5l-0.2,1l-0.6,0.5l-0.4,0.5l0,0.2l-0.5,0.6L344.1,205.2z
		 M393.6,150.9l0.3,0.3l-0.8,0L393.6,150.9z M401.9,160.4l0.1,0.1l0.1,0.5l-0.4,0.1l-0.4-0.4l0.3-0.1L401.9,160.4z"/>
	<path d="M73.3,345.4l39.6,2l42.7,1.7l12.3,0.4l21.7,0.6l41.3,0.9l0-0.1l0.1,0.8l0.3,1.4l0,2.3l0.1,1.4l0,1.9l-0.2,1.3l-0.4,0.5
		l-1,0.9l-0.4,0.2l-0.4-0.1l-0.3,0.2l-0.6,0.5l-0.3,0.2l-0.2,0.3l-0.2,0.1L227,363v0.2l-0.3,0.6l0,0.6l-0.1,0.4l-0.7,0.5l-0.6-0.2
		l0.2-0.5l0.3-0.1l0.4,0.1l0.2-0.2l-0.2-0.2h-0.4l-0.7,0.1l-0.4,0.7l-0.2,0.2l-1.1,0.4l-0.5,0.5l-0.2,0.1l-0.2,0.3l-0.3,0.2
		l-0.1,0.3l-0.8,0.9l-0.1,0.5l-0.6,0.6l-0.9,0.7l-1,1l-0.3,0.9L218,372l-0.4,0.3l-0.8-0.1l0.3,0.4l0.7,0.1l0.6-0.5l0.4-0.2l0.3-0.6
		l0.5-0.6l0.2,0l0.3-0.3l1.3-0.9l0.9-0.6l0.4-0.7l0.7-0.7l0.7-0.1l1.9-1.1l0.3-0.1l1.2-0.8l0.2-0.2l-0.1-0.3l0.7-0.1l0.2,0.1h0.6
		l0.6,0.2l0.6,1.1l0.1,1.1l0.2,1.2l0.1,0.7l0.4,1.1l0.1,1.4l0.1,0.1l0.4,1.8l0.2,0.6l0,0.4l0.2,0.2l0.1,0.9l0.4,1v0.3l0.5,1.6
		l0.6,1.3l0.4,1.4l0.2,0.1l0,0.5l0.2,0.4l0.1,0.6l0.2,0.6l0.1,0.4l0.2,0.2l0.4,1.6l0.3,0.6l0.1,0.9l0.5,1.3l0.1,0.6l0.3,0.8l0.2,1.1
		l0.4,1.4l0.1,0.4l0.3,0.8l0.1,0.6l0.2,0.5l0.2,0.6l0.2,1.1l0.9,2.1l0.5,0.9l0.1,0.5l0.3,0.6l0.1,0.5l0.2,0.4l0.2,0.2l-0.1,0.2
		l0.3,1.4l-0.1,0.3l-0.3,0.4l-0.1,0.5l-0.2,0.3l-0.5,0.4l-0.6,0.2l-0.2-0.6l-0.5-0.6l-0.3-0.1l-0.9-0.1h-0.4l-0.9,0.2l-0.6,0.2
		l-0.7,0.5l-0.7,1l-0.5,0.4l-1,0.4l-0.6,0.1l-0.1,0.3l-0.6,0l-1.6-0.6l-1.2-0.3l-0.9-0.4l-0.8-0.2l-0.6-0.5l0-0.1l-0.4-0.4l-0.6-0.1
		l-0.4-0.2l-0.8-0.2l-0.1-0.1l-0.8,0l-0.8-0.4l-1.3,0l-0.5,0.2l-0.4,0l-0.4,0.1l-0.8,0l-0.8,0.5l-0.4,0.3l-0.6,0.2l-0.6,0l-0.6,0.4
		l-0.4,0l-0.6,0.2h-0.2l-0.3,0.2l-0.6,0.1l-0.5,0.3h-0.4l-0.6,0.4l-0.1,0.2l-0.5,0l-0.3,0.2l-0.6,0.1l-0.2,0.3l-0.5,0l-0.2,0.2h0.8
		l0.2-0.3l0.9,0l0.8-0.3l0.9-0.2l0.8,0l1.2,0.4l0.6-0.2l0.6-0.1l0.4-0.2l0.9-0.3l1.4-0.4l0.3,0l0.5-0.2l1.4-0.1l1,0.3l0.4,0.2
		l0.8,0.1l1.1,0.3l0.3-0.1l0.6,0.1l0.6,0.2l0.9,0.5l0.3,0l0.3,0.2l0.8,0.2l0.4,0.3l0.4,0.1l0.9,0.6l1.2,0.3l0.8,0.1l-0.2,0.3
		l-0.6,0.2l-0.6,0.1l-0.3,0.3v0.4l-0.9,0.7l-2.1,0.7L227,412l-0.1,0.4l0.2,0.2l0.4-0.4l1.7,0l0.5,0l0.5-0.1l0.6-0.3l0.3-0.6l1.2-0.3
		l0.3-0.4v-0.2l0.4-0.6l0.5-0.4l0.3-0.1l0.5-0.4l0.5-0.4l0.3,0l0.4-0.4h0.2l0.6-0.3l0.3,0l0.8-0.6l0.5,0.2l0.8,0.2l0.5,0.2l0.6,0.4
		l0.5,0.5l0.4,1.1l0.2,0.3l0.1,0.4l0.1,0.7l0.9,1.8l1.3,2.1l1.1,1.8l1,1.7l0.4,0.8l0.7,1.4l0.4,0.7v0.2l0.4,0.6l0.6,1.2l0.9,1.8
		l0.9,1.9l0.9,1.8l0.6,0.8l0.2,0.5l0.2,0.1l0.7,1.1l0,0.1l1.2,1.7l0.1,0.2l0.6,0.7l0.3,0.5l0.9,1.1l0.6,1l0.2,0.2l0.2,0.5l0.4,0.5
		l1.1,1.5l1.7,2.2l0.4,0.5l0.5,0.6l0.5,0.4l0.4,0.5l0.3,0.2l0.3,0.4l0.3,0.3l0.6,0.9l0.4,0.4l0.5,0.6l1.3,1.5l0.3,0.3l0.6,0.8
		l0.3,0.2l0.9,1.3l0.6,0.7l0.1,0.2l0.6,0.7l0.5,0.7l0.1,0.2l0.5,0.6l0.6,0.7l0.1,0.2l-0.1,0.9l-0.2,0.2l-0.9,0.6l-0.9,1l-0.6,1.1
		l-0.4,0.5l-0.8,0.6l-0.3-0.2l0.6-1l-0.1-1.8l0-0.8l-0.1-0.2l-1.1-0.2l-2.5-0.1l-2.6-0.1l-0.2,0.1l-0.8-0.4l-0.7-1l-1.5-0.4
		l-2.2-0.3l-2.3-0.4l-3.5-0.5l-0.4-0.1l-1.8-0.2l-1-0.5l-1.3-0.9l-0.9-0.7l-2.6-1.5l-1.6-0.9l-0.9-0.4l-0.7-0.2l-1.1-0.1l-1.7-0.6
		l-0.1-0.1l-1.6-0.6l-0.8-0.2l-0.4-0.2l-1.6-0.6l-2-0.9l-1.5-0.3l-3.3,0.1l-2.2,0l-2.4,0.1l-1.5,0.1l-2.1,0l-1.7-0.5l-1.5-0.6
		l-2.5-0.9l-2.5-0.9l-3-1.1l-0.6-0.2l-2.6-1l-0.6-0.2l-7-2.6l-0.6-0.2l-2.4-0.9l-1.4-0.6l-2-0.7l-6.8,0.1l-1.8,0l-1.9,0l-0.7,0.1
		l-0.4-0.1l-1.1,0l-1.6-0.1l-2.4,0.1l-4.1,0l-0.4,0l-1.1-0.1l-1.6,0l-0.2,0l-1.9,0l-2.8,0l-1.4,0l-0.4,0l-3.1-0.1l-3.2,0l-4.2,0
		l-1.1-0.1l-0.9,0l-2.8,0l-1.6,0l-0.8-0.1l-0.8,0.1l-3.5,0l-5,0l-2.5,0l-4.5,0l-2.1,0l-1.1,0l-1.2-0.1l-0.5,0.1l-1,0l-6.3,0l-4.1,0
		l-0.3,0.1l-0.6,0l-3.5,0l-3.4-0.1l-0.9,0l-3.2,0l-1.6,0l-0.5,0l-0.5-0.2l-0.4-0.4l-1.8-2.1l-0.3-0.6l0-0.6l0.1-0.3l0.9-0.7l0.8-1.1
		l0.1-0.7l-0.2-1.1l-0.4-1l-0.6-0.7l-0.9-0.8l-1.1-1.2l-1.4-1.4l-1.8-1.6l-1.8-1.5l-0.5-0.5l-0.4-0.2l-1.1-0.8l-1.4-0.8l-0.6-0.2
		l-1.8-0.5l-1.9-0.3l-0.9-0.3l-0.7-0.4l-0.2-0.3l-0.3-1.3l-1.9-5.2l-0.2-0.2l-0.6-0.3l-1.6,0.1l-0.7,0.1l-0.8,0l-0.5-0.5l-0.3-0.6
		l-0.1-0.6l0.4-1.4l0.3-0.8l0.6-0.5l0.2-0.3l0.7-0.5l1-0.6l0.6-0.6l0.5-0.8l0.1-0.5l0-0.7l-0.2-1.8l0.2-0.5l0.8-1.3l0.1-0.4l0.2-0.5
		l-0.1-2.2l0.1-0.2l-0.1-1.6l0.1-0.5l0.1-0.7l0.2-1l0.4-0.6l2-1.6l0.4-0.7l0.2-0.4l0-1.3l-0.2-0.4l-0.9-0.7l-0.2-0.1l-1.3-0.4
		l-0.4-0.2l-1.2-1l-0.9-0.7l-0.3-0.5l-1.1-2l-0.5-1.8l0.1-0.7l-0.1-0.5l0.3-0.5l0.9-0.7l0.6-0.3l0.4-0.5l0.4-0.9l0.3-0.8l0.3-0.2
		l0.4-0.1l1.4,0l0.5,0.1l0.7,0l0.7-0.1l0.4-0.4l0.3-0.7l0.1-1.4l0.3-2.5l0.3-3l0.1-0.7l0.1-2l0-0.6l0.1-1.1l-2.4-3.5l-0.4-0.4
		l-0.8-1.2l-0.1-0.3l-0.6-0.8l-0.4-0.6l-0.1-0.5l0.3-1.2l0.3-0.7L73.3,345.4z M236.2,404.8l0.4,0.3l0.1,0.3l-0.2,0.3l-0.6-0.1
		l-0.4-0.2L236.2,404.8z M237.2,405.2l0.4,0.1l-0.4,0.2L237.2,405.2z M231.9,409.4v0.2l-0.3,0.2l-0.3-0.1l0.2-0.3L231.9,409.4z"/>
	<path d="M73.3,345.4L74,344l0.1-0.5l-0.6-0.8l-0.6-0.3l-1.2-0.2l-1-1l-0.5-0.3l-0.6-0.1l-1.6,0.4l-0.6-0.1l-0.8-0.3l-1.2-0.8
		l-0.5-0.2l-0.6,0l-1.2,0.4l-1.5,0.7l-0.6,0.4l-0.4,0.3l-0.5,0.7l-1.3,1.9l-0.6,0.4l-0.3,0.1l-0.6-0.1l-0.9-0.4l-0.8-0.4l-1-0.8
		l-0.9-0.5l-0.3-0.4l-1.2-1.1l-0.6-0.3l-0.5-0.1l-0.9,0.5l-1.1,0.5l-0.6,0.2l-2.6,0.9l-1.1,0.6l-0.2,0.2l-1.4,1l-0.7,0.6l-1.1,0.9
		l-1.6,1.7l-1,0.9l-0.9,0.9l-1.8,1l-1.4,0.6l-0.8,0.3l-0.5,0.1l-1,0l-1-0.3l-0.9-0.5l-0.6-0.6l-0.2-0.7l-0.1-0.9l0.1-0.7l0.1-0.4
		l0.3-1.6l-0.1-0.4L30,345l-0.2-1l-0.3-0.9l-0.2-0.3l-2.1-1.7l-1-1.3l-0.4-1l-0.3-0.9l-0.1-1.2l-0.1-3.2l0.1-1.6l0.1-0.6l0.1-0.9
		l0-0.8l0.1-0.4l0-1.2l-0.6-3.1l-0.6-1.9l-0.7-1.7l-0.8-1.7l0-0.3l-0.7-1.2l-0.6-0.6l-0.8-0.7l-1.1-0.9l-1.9-1.4l-0.9-0.7l-0.9-0.5
		l-0.7-0.5l-1.2-0.7l-1.1-0.7l-0.9-0.8l-0.6-0.7l0-0.9l0.2-0.9l0.3-0.5l0.4-0.3l0-0.2l1.2-1.5l0.7-1.3l0.6-0.9l0.6-1.2l0.1-0.6
		l0.1-0.9l-0.2-0.6l-0.2-0.3l-1.1-1.1l-2-1.7l-1-1.1l-0.4-0.7l0-0.4l0.1-0.3l0.9-0.5l1-1l0.4-0.6l0-0.4l-0.5-0.7l-0.2-0.4l-0.1-0.6
		l0.7-1l0.7-0.7l0.5-0.4l0.9-0.4l0.9-0.5l0.7-0.6l0.1-0.3l-0.1-0.5l-1-1.7l-0.5-0.8l-0.6-0.6l-0.9-1.1l-1.1-1l-0.8-0.8l-0.3-0.6
		l-0.1-0.9l0.2-0.5l0.6-0.9l0.7-0.5l0.2-0.4l0.1-1l-0.4-1.4l-1.1-1.8l-0.7-0.7l-0.5-0.3l-0.9-0.6l-0.4-0.4l-0.2-0.7l0.1-0.4l0.2-0.4
		l1.8-1l0.6-0.5l0.4-1.1l0-0.9l-0.2-0.4l-0.2-0.8l0-0.8l0.2-0.5l0.4-0.6l0.7-0.7l1.2-0.9l0.5-0.5l0.5-1l0.2-0.6l-0.1-0.6l-0.6-1.2
		l-0.1-0.5l0-0.6l0.2-0.5l0.3-0.3l0.9-0.7l0.5-0.1l2.4,0l0.7,0l2.2,0l1.5,0l1.2,0l0.9,0l4.8,0l0.9-0.1l0.2-0.4l-0.1-1.5l0.1-0.3
		l1.4-0.1l0.3-0.1l0.6-0.1l0.1-0.5l-2.8-0.2l-0.8-0.1l-0.3-0.1l-0.3-0.4l-0.3-0.8l0-0.8l0.3-0.7l0.1-0.6l0.3-0.8l0.7-1.3l0.7-1.1
		l0.7-0.8l0.8-0.6l0.3-0.3l0.7-0.4l0.3-0.3l-0.1-0.5l-0.5-1.2l0-0.5l0.2-0.6l1.4-1.4l0.8-1l0.7-1.3l0.4-0.5l0.9-1.4l0.1-0.4l0.6-0.5
		l1.3-0.8l0.4-0.5l0.3-0.5l0.6-0.8l0.6-0.2l0.5,0l1.1,0.3L45,230l0.9-0.1l0.8-0.2l1.7-0.6l0.3,0l0.7-0.4l0.5-0.2l1.2-0.6l0.6-0.4
		l1.7-1.4l1.8-1.6l0.6-0.4l0.5-0.5l1-0.8l0.8-0.7l0.7-0.7l0.8-0.7l0.8-1.4l0.3-0.8l0-0.8l-0.3-1.9l-0.1-1.1l0-0.9l0.2-1l0.1-1
		l-0.2-2l-0.2-0.9l-0.3-1.5l-0.1-0.8l-0.3-0.6l-0.3-1.2l-0.3-0.9l-0.5-1.7l-0.3-1.5l0-2l0.2-0.5l0.5-0.4l30,24.9l29.1,23.6l21.3,0.4
		l19.6,0.3l-1.1,35.2l-0.2,6.1l-0.8,25.9l-0.5,0.4l-0.4,9.9l0.4,0.4l-0.8,24.1l-42.7-1.7L73.3,345.4z"/>
	<path d="M94.4,115.9l0.6-0.5l0.4-0.8l0.1-0.7l0.3-1.1l0-0.9l-0.2-1.5l-0.3-1.1l-0.3-0.3l-0.2-0.4l-0.5-0.7l-0.5-0.4l-0.9-0.6
		l-1.5-0.7l-0.4-0.1l-0.7-0.3l-0.7-0.7l-0.4-1l-0.1-0.8l0.1-0.6l0.4-0.3l0.4-0.2l0.3,0l1.5-0.4l0.6-0.4l0.1-0.4l-0.1-0.8l-0.4-1.3
		l-0.2-1.2l-0.2-0.4l-0.7-0.8L90.6,96l0-0.7l0.2-1.5l0.2-1.1l0.2-0.5l0.7-1.1l0.2-0.4l-0.2-1l-0.3-0.7l-0.2-1.2l0.5-0.7l0.5-0.3
		l0.8-0.2l1.9,0l1.2-0.1l0.7-0.1l0.7-0.4l0.5-0.4l1.4-0.9l0.9-0.9l0.5-0.4l0.5-1l0.8-0.6l1.3-1l0.9-0.6l0.9-0.3l0.3-0.2l0.1-0.4
		l-0.1-0.5l-0.2-1l0.1-1l-0.1-0.8l-0.6-1.1l-0.2-0.9l-0.4-1l-0.1-0.5l0.4-1.8l0.2-1.3l-0.1-1.4l0.1-0.3l-1.7-3.4l-0.5-1.5l-0.1-0.5
		l-0.4-1.1l-0.2-1.3l-0.2-0.5l-0.4-1.8l-0.1-1.9l0.1-2.5l-0.2-1l0-0.6l-0.3-0.9l-0.6-1.1l-0.4-0.5l-0.5-0.4l-0.3-0.2l-0.8-0.6
		L97,46.8l-0.2,0l-0.9-0.3l-0.3-0.3L95,45.4l-0.6-0.7l-1-1.1l0.1-0.6l0.2-0.2l0.7-0.2l0.9-0.2l0.5,0l0.7-0.2l1-0.3l0.6-0.1l0.8-0.3
		l0.2-0.2l0.9-0.6l0.9-0.7l0.8-0.8l0.8-1.8l0.6-0.8l0.4-0.6l0.9-1l0.3-0.4l0.6-0.7l0.3-0.2l5-0.4l5.4,0l10.1,0l11.1-0.1l9.5,0l6.1,0
		l9,0l0.4,0l0.8,0.1l5.2,0.1l10.3,0.2l10.3,0.1l10.3,0.1l5.9,0L204.7,50l-0.3,16.3l-0.9,44.5l-1,4.9l-0.1,4.4l-1.3,68l-2.4-1
		l-23.3-30.8l-25.9-35l-40.1,2.9L94.4,115.9z"/>
	<path d="M303.9,262.9l-50.6,0.7l-6.7,0l-0.2-9.2l-46.5,0.1l-0.2,0l0.2-7.3l1-48.1l0.2-10.9l18.9,7.7l18.1-1.3l16.5-1.3L271,192
		l7.5,4.3l28.4-23.5l1.4,1.4l1.7,0l15.3,19.9l3.7,4.8l14.6,6.4l0.4-0.2l0.1,0.6l-0.3,0.5l-1.1,0.5l-0.4,0l-0.4,0.2l-0.5,0.1
		l-0.5-0.1l-1.2,0l-1.2,0.3l-0.6,0.2l-1.1,0.7l-0.4,0.5l0,0.4l-0.9,0.6l-1.1,0.3l-0.7,0.6l-0.3,0.3l-0.9,0.5l-0.5,0.2l-0.8,0.5
		l-0.3,0.4l-0.4,0.7l0.1,0.4l-0.1,0.2l-0.2,1l-0.2,0.4l-0.1,1.4l-0.5,0.4l-0.3,0.1l-0.9,0.9l-0.3,0.6l-0.2,0.5l0.1,0.6l-0.3,0.4
		l0,0.5l0.3,0.3l-1.1,1l-0.1,0.5l-0.3,0.3l-0.6,0.3l-0.7,0.7H325l-0.9,0.2l-1.7,0.6l-1.3,0.6l-1.3,0.8l-0.7,0.5l-2.1,1.3l-1.3,1.1
		l-1.1,0.9l-1.4,1.2L313,231l0,0.4l-1.8,2.1l-0.5,0.3l-0.6,0.6l-0.6,0.9l-0.2,0.2l-0.3,0.5l-0.2,0.8l-0.1,0.1l-0.1,0.8l-0.5,1.5
		l-0.3,0.3l0,0.6l-0.1,0.3l-0.6,0.2l-0.5,0.4l-0.5,0.8l-0.3,0.7l0,0.6l0.2,0.5l0.9,0.2l-0.2,0.3l0.1,0.6l0.3,0.3v0.2l-0.4,0.6
		l-0.3,0.1l-0.5,0.5l-0.5,0l-0.5,0.1l-0.2,0.2h-0.2l-0.1,0.3l-0.1,0.6L304,248l0.4,1.4l-0.1,0.3l-0.3,0.1l0.3,0.4l1.2,0.1l0.4-0.3
		h0.3l0.7-0.2l0.2,0l0.2,0.7l0,0.6l0.3,0.5l0,0.8l0,0.6l-0.2,0.6l-0.2,0.3l-0.5,1.2l-0.1,0.6l-0.2,0.9l-0.2,0.6l-0.7,1.2v0.2
		l-0.6,0.9l-0.4,0.9l-0.1,0.9l-0.2,0.7v0.3L303.9,262.9z"/>
	<path d="M58.8,197.8l0.5-0.3l1.6-1.1l0.7-0.3l0.7-0.6l0.7-0.8l0.8-0.3l1.3,0.1l1-0.1l1.9-0.8l0.3-0.2l0.4-0.9l0.1-0.7l0.2-0.6
		l0.5-0.6l0.5-0.3l0.4-0.1l0.6,0l1,0.5l0.4,0.1l0.5,0l0.3-0.2l0.1-0.4l-0.8-2.1l-0.2-0.4l-0.5-0.7l-0.1-0.6l0.1-0.5l0.9-2.3l0-0.9
		l-0.2-3.7l-0.1-0.9l-0.2-0.7l-0.6-1.5l-0.1-0.7l0.1-0.6l-0.1-1.2l0.1-0.7l-0.2-0.9l-0.7-0.4l-0.7,0l-0.7-0.1l-0.5-0.4l-0.4-0.7
		l-0.3-1.3l-0.1-0.6l-0.5-0.9l-1-0.4l-0.5-0.2l-0.2-0.3l-1.8-1.8l-1.4-1.5L62,162l-0.2-1.1l0-0.4l0.4-1.1l0.6-0.8l0.6-0.8l0.6-0.6
		l0.4-0.6l0-0.2l0.9-3.2l0.3-0.8l0.6-1.3l0-0.2l0.4-1l0.8-1.7l0.7-1.2l0.9-1.7l0.4-0.7l1.1-1.8l1.1-1.4l0.3-0.6l0.5-0.9l0.2-0.6l0-1
		l0.7-2.1l0.2-0.9l0-1.7l-0.3-0.5l-0.4-0.3l-1.3-0.5l-0.4-0.5l0-0.9l0.3-0.9l0.5-1l0.4-0.4l0.7-0.4l1.2-0.4l1.6-0.3l0.8-0.1l0.8-0.3
		l0.6,0l1.1,0.6l0.7,0.1l0.7-0.2l0.4-0.2L81,127l0.1-0.4l0.6-1.4l0.1-0.4l0.5-0.4l1.5-0.9l0.9-0.9l0.4-0.9l0.6-1l1.1-1.2L87,119
		l0.4-1l0.1-0.4l-0.2-1.1l-0.5-1l-0.2-0.7l0-0.4l0.2-0.5l0.7-0.4l0.6,0.1l0.7,0.3l0.5,0.4l0.4,0l0.5,0.3l0.1,0.2l1.4,0.8l0.6,0.2
		l1.1,0.4l0.6,0l0.5-0.2l14.9,8.5l40.1-2.9l25.9,35l23.3,30.8l2.4,1l-0.2,10.9l-1,48.1l-34.1-0.2l-7-0.1l-19.6-0.3l-21.3-0.4
		l-29.1-23.6L58.8,197.8z"/>
	<path id="corpenAike" class="st0" d="M230.9,350.9L230.9,350.9l-41.3-0.8l-21.7-0.6l-12.3-0.4l0.8-24.1l-0.4-0.4l0.4-9.9l0.5-0.4
		l0.8-25.9l0.2-6.1l1.1-35.2l7,0.1l34.1,0.2l-0.2,7.3l0.2,0l46.5-0.1l0.2,9.2l6.7,0l50.6-0.7l-0.2,0.8l-0.1,0.8l-0.2,1v1.1l-0.1,0.5
		l-0.2,0.7l-0.2,0.9l-0.1,0.8l-0.1,0.5l-0.2,1.3v0.6l-0.1,0.7l0,1l-0.1,0.9l-0.2,0.5l-0.4,0.6l0.2,1.3l-0.3,1.2l0.3,0.6l0,1.1
		l-0.3,1.6v1.2l-0.2,0.7l0,0.5l-0.2,0.9l0,0.3l-0.3,0.8l-0.5,1.2v0.2l-0.3,0.5l-0.2,0.6l-0.2,0.1l-0.3,0.8l-0.1,0.1l-0.2,0.7l-0.5,1
		l-0.3,1.2l-0.6,1.2l-1,1.6l-0.5,0.6l-0.3,0.8l-0.9,1.2l-0.7,0.6l-1,0.9l-1.4,1.2l-0.6,0.4l-1.3,0.8l-0.6,0.6l-0.6,0.6l-0.7,0.5
		l-0.2,0.1l-0.6,0.4l-1.6,1l-2.8,1.2l-1.1,0.5l-1.4,0.7l-1.2,0.4l-1.2,0.3l-2,0.3l-1-0.1l-1.3,0l-1.5,0.1l-0.7,0.1l-0.8-0.1
		l-0.7,0.9l0.3,0.4l0.1,0.8l-0.1,0.5l-0.3,0.4l-1.1,0.7l-0.9,0.6l-1.1,0.4l-1.7,0.6l-0.4,0.2l-2,0.6l-1.2,0.4l-0.4,0.3l-0.9,0.4
		l-1.4,0.5l-0.7,0.4l-0.9,0.3h-0.2l-0.5,0.3l-0.8,0.3l-1.2,0.5l-0.6,0.4h-0.2l-0.9,0.4h-0.2l-1.1,0.5l0,0.3l-0.7,0.2l-0.9,0
		l-0.5,0.1l-0.6,0.4l-0.8,0.5v0.3l-0.8,0.4l-1.2,0.4l-0.6,0.2l-0.5,0.3l-0.8,0.7l0.3,0.7l-0.3,0.2l-0.2,0.3l0.2,0.1v0.4l-0.3-0.2
		l-0.3,0.2l-0.4,0l-0.3,0.1l-0.2,0.3l-0.7,0.7l0.1,0.4l-0.2,0.1l-0.4,0.4l-0.4,0.3l-0.9,1.1l-0.5,0.8l-0.4,0.4l-0.1,0.3l-0.5,0.9
		l-0.3,0.7l-0.3,0.6l-0.7,0.9l-0.3,0.5l-0.4,0.4l-0.1,0.3l-0.1,0.7l-0.3,0.5l-0.2,0.8l-0.9,1.4l-0.3,0.4l0.1,0.3l-0.3,0.2v0.6
		l-0.1,0.4v0.6l-0.5,1.7l-0.1,0.5l-0.8,2v0.2l-0.6,0.9l-0.3,0.9v0.6l-0.1,0.9l-0.5,1.1l-0.1,0.5v1.2l0.1,0.8L230.9,350.9z"/>
	<path id="deseado" class="st0" d="M344.1,205.2l-0.4,0.2l-14.6-6.4l-3.7-4.8l-15.3-19.9l-1.7,0l-1.4-1.4l-28.4,23.5L271,192
		l-16.4,1.3l-16.5,1.3l-18.1,1.3l-18.9-7.7l1.3-68l0.1-4.4l1-4.9l0.9-44.5l0.3-16.3l0.3-16.1l9.5,0.1l4.2,0l6.1,0l10.3,0l10.9,0
		l4.6,0l4.1,0l6.2,0l5.2,0l7.2-0.1l8.3-0.1l10.3-0.1l6.8-0.1l9.5-0.1l0.1,0.7l0.4,0.3l-0.4,0.3l0.3,0.5l-0.3,0.1l-0.3,0.5l0.2,0.3
		l-0.2,0.1l0,0.3l-1.3,0.3l-0.1,0.3l0,0.6l0.7,0.1l-0.1,0.5l-0.6,0.4l-0.1,0.4v0.8l0.1,0.5l-0.1,0.3l0.1,0.3l-0.1,0.3l0,0.6l0,1.6
		l0.1,1.1l0.3,2.4l0.2,1.4l0.3,1.2l0.3,1.1l0.6,2.4l0.4,1l0.5,1.5l0.5,1.3l0.4,0.8l0.2,0.6l0.3,0.5l0,0.2l0.3,0.6l0,0.3l0.4,0.5
		l0.3,0.8l0.7,1.2l0,0.4l0.7,1l0.3,0.6l0,0.6l0.4,0.5l0.1,0.5l0.3,0.3l0.6,1l0.2,0.7l0.2,0.3l0.4,0.7l0.3,0.9l0.6,0.9l0.5,0.5
		l0.1,0.2l0.7,0.6l0.2,0.6l0.2,0.4l0.8,0.8l0.6,0.4l0.8,0.7l0.6,0.3l1.1,0.4l1.2,0.2l0.5,0.2l0.4,0.4h0.7l0.3,0.1l0.4,0.3l0.2,0.4
		l0.3,0.7l0.4,0.5l0.5,0.2l0.5,0.3l0.6,0.6l0.5,0.2l0.4,0l0.2-0.3l0.6,0.2l0.5,0.3l0.2,0.2l0,0.3l0.4,0.1l0-0.3l0.4,0.2l0.1,0.3
		l0.3,0.5l0,0.4l0.4,0.7l0.5,0.3l0.3,0.6l0.3,0.4l0.3,0.2l0.6,1.1l0.6,0.6l0.6,0.4l0.4,0.8l0.6,0.7l0.8,0.6l0.9,0.4l0.4,0.3l0.2,0.5
		l0.3,0.4l0.6,0.4h0.6l0.3,0.1l0.2,0.4l0.5,0.4l0,0.3l0.2,0.3l0.6,0.5l0.2,0.5l0.7,0.9l0.2,0.4l0.2,0.3l0.3,0.2l0.3,0.8l0.4,0.4
		l0.6,0.1l0.2-0.1l0.2,0.3l-0.1,0.5l0.3,0.5l0.4,0.4l0.8,0.7l0.1,0.2l0.5,0.3l0.5,0.4l0.5,0.6l0.1,0.3l0.3,0.3l1,0.7l1,0.6l1.4,0.7
		l0.7,0.3l0.7,0l1.1-0.4l0.5,0l0.3,0.2l0.2,0.4l0.5,0.4l0.7,0.1l0.7-0.1l0.5-0.3l0.5,0l0.5,0.3l0.6-0.1l0.3,0.2l0.6,0l0.6-0.1
		l0.2-0.1l0.6-0.1l0.6-0.2l0.8,0.1l1.1,0.3l0.8,0.1l0.8,0.4l0.8,0.1l0.3,0.2l0.7,0.1l0.6,0.2l1,0.3l1.2,0.3l1,0.1l0.2,0.1l1,0.1
		l0.5-0.1l0.5,0.1l0.3,0.2l0.8,0.1l0.8,0l1.2,0.3l0.6,0.2l0.9,0.1h0.7l0.9-0.4l0.4,0l0.8,0.1l1.1-0.1l0.1,0.1l0.7,0.1l0.7-0.3
		l0.6-0.4l0.5-0.1l0.5,0l0.8-0.1l1.2,0.2l0.6-0.1l0.3,0l0.4,0.2l0.7-0.3l0.3,0.2l0.4,0l0.4,0.2l0.4,0l0.4,0.1l0.1,0.2l0.6,0.2
		l0.3,0.3l0.3,0.1l0.8,0.4l1.1-0.1l0.1,0.2l0.3,0.5l0.5,0.1l0.2,0.2l-0.1,0.3l0,0.6l0.3,0.7l0.4,0.5l0.4,0.4l1,0.7l0.5,0.7l0.8,0.8
		l0.6,0.6l0.2,0.1l0.9,0.7l0.7,0.2l-0.2,0.2l-0.2,0l-0.5,0.5l-0.1,1l0.2,0.7l0.3,0.6l0,0.6l0.2,0.7l0.3,0.6l0.1,0.4l0.1,0.6l0.1,0.2
		l0.3,1.2l0,0.2l0.3,0.9l0,1.4l-0.1,0.1l0,0.8l-0.2,0.8l-0.1,0.6l0,2.2l-0.1,0.7l-0.1,1.1l-0.1,0.9l-0.3,1.2l-0.1,2.1l0,0.3
		l-0.3,0.6l-0.1,0.4l-0.3,1.2l-0.1,0.6l-0.2,0.8l-0.4,1.3l-0.3,0.4l-0.3,0.7l-0.1,0.7l-0.6,2l-0.4,0.8l-0.4,1.1l-0.2,0.3l-0.3,0.7
		l-0.2,0.7l-0.3,0.7l-0.2,0.7l-0.1,0.2l-0.5,1.2l0.2,0.5l-0.5,0.1l-0.1,0.4l-1.3,0.1l-0.4,0.2l-0.6,0.2l0.1,0.5l0.6,0.2v1l0.3,0.5
		l0,0.5l0.2,0.2l0,0.4l0.2,0.5l0.2,0.7l0.1,0.6l0,1.1l0.2,0.6l0,0.7l0.3,0.3l0.5,1.1l0.1,0.2l0.4-0.1l0.4,0.6l0.3,0.1l0.5-0.1
		l0.4,0.1l0.4-0.1l0.3,0.1l0.2,0.3l0.6,0.1l0.2,0.2l0.3,0l-0.2,0.4l-0.4,0.1l-0.1,0.2l-0.5-0.1l-0.3,0.6l0.3,0.3l-0.4,0.3l0.3,0.1
		l0,0.4l1-0.1l0.2,0.3l-0.4,0.2l-0.3-0.2l-0.6,0.1l-0.5-0.1l-0.2,0.6l-0.4,0.1l-0.1-0.2l-1,0.5l0-0.2l-0.5-0.1l0.1-0.2v-0.4l0.2-0.3
		l-0.1-0.4l-0.9-0.2l-0.2,0.2l-0.3,0.1l-0.2-0.3l-0.2-0.1l-0.8-0.1l-0.2-0.1h-0.4l-0.6,0.2l-0.4,0.2l-0.6,0.5l-0.6,0.9l-0.3,1l0,0.4
		l0.2,0.2l0.4-0.1l0.1,0.4l0.5-0.1l0.2,0.4l-0.1,0.3l-0.3,0.1l0,0.3l-0.5,0v0.4l0.6,0.2l-0.2,0.3l-0.6,0.1l-0.3-0.2l-0.1,0.4
		l0.6,0.5l0.1,0.3l-0.3,0.1l-0.5,0.3l0,0.3l-0.4,0.3l-0.3,0l-0.1,0.3l0.4,0.9l0.3,0.5l0.5,0l0,0.3l0.3,0.2l0.6,0l0.5,0.1l0.3,0.2
		l0.5,0.7l0.5,0.7l-0.2,0.1l-0.4-0.3l-0.2,0.2l-0.3-0.2l-0.2,0.4l0.2,0.1l-0.4,0.4l-0.1,0.2l-0.4-0.1l-0.4-0.2l-0.1,0.3l0.2,0.3
		l-0.5,0l0-0.3l0.2-0.2l-0.3-0.6l-0.7-0.2l-0.4,0.1l-0.4-0.1l-0.4,0.3l0.1,0.3l-0.3,0.1l-0.1-0.3l-0.4,0.1l-0.1-0.2l-0.4,0.1
		l-0.2,0.3l-0.9-0.3h-0.4l-0.5,0.1l-0.2,0.2l-0.1,0.7l-0.2-0.1l0-0.4l-0.4-0.2l-0.6,0.1l-0.4,0.3l-0.4,0.1l0,0.2l-0.6,0.1l-0.5,0.3
		l-0.3,0.4l-0.1,0.3l0.2,0.3l-0.6,0.2l0.2,0.5l-0.2,0.2l-0.1,0.7l-0.7,0.5l-0.2,0l-0.4,0.7l0.4-0.1l0.1,0.5l-0.5,0.5l-0.4,0.1
		l-0.4-0.1l-0.3,0.1l-0.5-0.1l-0.2,0.1l-0.2,0.3l-0.9-0.1l-0.7,0.5l-0.4,0.7l-0.5,0.2l-0.1,0.2l0.1,0.4l-0.4,0.2l0,0.4l-0.3,0.2
		l-0.5,0.1l0,0.2l-0.2,0.3l-0.5,0l-0.3,0.1l-0.4,0.3l-0.1,0.3l-0.6,0.4l-0.4,0.1l-0.6,0.6l-0.3,0.4l-0.1,0.8l-0.6,0.5l-0.2,0.6v0.7
		l0.2,0.6l0.3,0.4l0.1,0.4l0.3,0.3l0.3-0.1l0.1,0.4l-0.1,0.6l-0.2,0.1l-0.7-0.4l-0.2,0.3l-0.3,0v-0.3l-0.4-0.2l-1.1-0.2l-1.4-0.1
		l-0.6,0l-0.8,0.2l-0.6,0.3l-0.4,0.2l-0.4,0.4l-0.1,0.5l0.5,0.4l0,0.3l-0.3,0.2l-0.1,0.5l0.3,0.3l-0.9,0.4l-0.4,0.4l0,0.4l-1-0.1
		l-0.9,0.1l-0.4,0.5l-0.3-0.1l-1.2,0l-1,0.1l-2.2,0.4l-1.1,0.3l-0.6,0.4l-0.6,0.5l-0.1,0.4l-0.6,0.1l-0.9,0.3l-1,0.5l-0.2,0.2
		l-0.7,0.4l0,0.4l-0.4,0.3l-0.4,0.5l-0.1,0.4l-0.3,0l-0.7,0.2l-0.6,0.4l-0.1,0.3l-0.5,0.1l-0.5,0.3l-0.4,0.4l-0.4,0.5l-0.2,1
		l-0.6,0.5l-0.4,0.5l0,0.2l-0.5,0.6L344.1,205.2z M393.6,150.9l0.3,0.3l-0.8,0L393.6,150.9z M401.9,160.4l0.1,0.1l0.1,0.5l-0.4,0.1
		l-0.4-0.4l0.3-0.1L401.9,160.4z"/>
	<path id="guerAike" class="st0" d="M73.3,345.4l39.6,2l42.7,1.7l12.3,0.4l21.7,0.6l41.3,0.9l0-0.1l0.1,0.8l0.3,1.4l0,2.3l0.1,1.4
		l0,1.9l-0.2,1.3l-0.4,0.5l-1,0.9l-0.4,0.2l-0.4-0.1l-0.3,0.2l-0.6,0.5l-0.3,0.2l-0.2,0.3l-0.2,0.1L227,363v0.2l-0.3,0.6l0,0.6
		l-0.1,0.4l-0.7,0.5l-0.6-0.2l0.2-0.5l0.3-0.1l0.4,0.1l0.2-0.2l-0.2-0.2h-0.4l-0.7,0.1l-0.4,0.7l-0.2,0.2l-1.1,0.4l-0.5,0.5
		l-0.2,0.1l-0.2,0.3l-0.3,0.2l-0.1,0.3l-0.8,0.9l-0.1,0.5l-0.6,0.6l-0.9,0.7l-1,1l-0.3,0.9L218,372l-0.4,0.3l-0.8-0.1l0.3,0.4
		l0.7,0.1l0.6-0.5l0.4-0.2l0.3-0.6l0.5-0.6l0.2,0l0.3-0.3l1.3-0.9l0.9-0.6l0.4-0.7l0.7-0.7l0.7-0.1l1.9-1.1l0.3-0.1l1.2-0.8l0.2-0.2
		l-0.1-0.3l0.7-0.1l0.2,0.1h0.6l0.6,0.2l0.6,1.1l0.1,1.1l0.2,1.2l0.1,0.7l0.4,1.1l0.1,1.4l0.1,0.1l0.4,1.8l0.2,0.6l0,0.4l0.2,0.2
		l0.1,0.9l0.4,1v0.3l0.5,1.6l0.6,1.3l0.4,1.4l0.2,0.1l0,0.5l0.2,0.4l0.1,0.6l0.2,0.6l0.1,0.4l0.2,0.2l0.4,1.6l0.3,0.6l0.1,0.9
		l0.5,1.3l0.1,0.6l0.3,0.8l0.2,1.1l0.4,1.4l0.1,0.4l0.3,0.8l0.1,0.6l0.2,0.5l0.2,0.6l0.2,1.1l0.9,2.1l0.5,0.9l0.1,0.5l0.3,0.6
		l0.1,0.5l0.2,0.4l0.2,0.2l-0.1,0.2l0.3,1.4l-0.1,0.3l-0.3,0.4l-0.1,0.5l-0.2,0.3l-0.5,0.4l-0.6,0.2l-0.2-0.6l-0.5-0.6l-0.3-0.1
		l-0.9-0.1h-0.4l-0.9,0.2l-0.6,0.2l-0.7,0.5l-0.7,1l-0.5,0.4l-1,0.4l-0.6,0.1l-0.1,0.3l-0.6,0l-1.6-0.6l-1.2-0.3l-0.9-0.4l-0.8-0.2
		l-0.6-0.5l0-0.1l-0.4-0.4l-0.6-0.1l-0.4-0.2l-0.8-0.2l-0.1-0.1l-0.8,0l-0.8-0.4l-1.3,0l-0.5,0.2l-0.4,0l-0.4,0.1l-0.8,0l-0.8,0.5
		l-0.4,0.3l-0.6,0.2l-0.6,0l-0.6,0.4l-0.4,0l-0.6,0.2h-0.2l-0.3,0.2l-0.6,0.1l-0.5,0.3h-0.4l-0.6,0.4l-0.1,0.2l-0.5,0l-0.3,0.2
		l-0.6,0.1l-0.2,0.3l-0.5,0l-0.2,0.2h0.8l0.2-0.3l0.9,0l0.8-0.3l0.9-0.2l0.8,0l1.2,0.4l0.6-0.2l0.6-0.1l0.4-0.2l0.9-0.3l1.4-0.4
		l0.3,0l0.5-0.2l1.4-0.1l1,0.3l0.4,0.2l0.8,0.1l1.1,0.3l0.3-0.1l0.6,0.1l0.6,0.2l0.9,0.5l0.3,0l0.3,0.2l0.8,0.2l0.4,0.3l0.4,0.1
		l0.9,0.6l1.2,0.3l0.8,0.1l-0.2,0.3l-0.6,0.2l-0.6,0.1l-0.3,0.3v0.4l-0.9,0.7l-2.1,0.7L227,412l-0.1,0.4l0.2,0.2l0.4-0.4l1.7,0
		l0.5,0l0.5-0.1l0.6-0.3l0.3-0.6l1.2-0.3l0.3-0.4v-0.2l0.4-0.6l0.5-0.4l0.3-0.1l0.5-0.4l0.5-0.4l0.3,0l0.4-0.4h0.2l0.6-0.3l0.3,0
		l0.8-0.6l0.5,0.2l0.8,0.2l0.5,0.2l0.6,0.4l0.5,0.5l0.4,1.1l0.2,0.3l0.1,0.4l0.1,0.7l0.9,1.8l1.3,2.1l1.1,1.8l1,1.7l0.4,0.8l0.7,1.4
		l0.4,0.7v0.2l0.4,0.6l0.6,1.2l0.9,1.8l0.9,1.9l0.9,1.8l0.6,0.8l0.2,0.5l0.2,0.1l0.7,1.1l0,0.1l1.2,1.7l0.1,0.2l0.6,0.7l0.3,0.5
		l0.9,1.1l0.6,1l0.2,0.2l0.2,0.5l0.4,0.5l1.1,1.5l1.7,2.2l0.4,0.5l0.5,0.6l0.5,0.4l0.4,0.5l0.3,0.2l0.3,0.4l0.3,0.3l0.6,0.9l0.4,0.4
		l0.5,0.6l1.3,1.5l0.3,0.3l0.6,0.8l0.3,0.2l0.9,1.3l0.6,0.7l0.1,0.2l0.6,0.7l0.5,0.7l0.1,0.2l0.5,0.6l0.6,0.7l0.1,0.2l-0.1,0.9
		l-0.2,0.2l-0.9,0.6l-0.9,1l-0.6,1.1l-0.4,0.5l-0.8,0.6l-0.3-0.2l0.6-1l-0.1-1.8l0-0.8l-0.1-0.2l-1.1-0.2l-2.5-0.1l-2.6-0.1
		l-0.2,0.1l-0.8-0.4l-0.7-1l-1.5-0.4l-2.2-0.3l-2.3-0.4l-3.5-0.5l-0.4-0.1l-1.8-0.2l-1-0.5l-1.3-0.9l-0.9-0.7l-2.6-1.5l-1.6-0.9
		l-0.9-0.4l-0.7-0.2l-1.1-0.1l-1.7-0.6l-0.1-0.1l-1.6-0.6l-0.8-0.2l-0.4-0.2l-1.6-0.6l-2-0.9l-1.5-0.3l-3.3,0.1l-2.2,0l-2.4,0.1
		l-1.5,0.1l-2.1,0l-1.7-0.5l-1.5-0.6l-2.5-0.9l-2.5-0.9l-3-1.1l-0.6-0.2l-2.6-1l-0.6-0.2l-7-2.6l-0.6-0.2l-2.4-0.9l-1.4-0.6l-2-0.7
		l-6.8,0.1l-1.8,0l-1.9,0l-0.7,0.1l-0.4-0.1l-1.1,0l-1.6-0.1l-2.4,0.1l-4.1,0l-0.4,0l-1.1-0.1l-1.6,0l-0.2,0l-1.9,0l-2.8,0l-1.4,0
		l-0.4,0l-3.1-0.1l-3.2,0l-4.2,0l-1.1-0.1l-0.9,0l-2.8,0l-1.6,0l-0.8-0.1l-0.8,0.1l-3.5,0l-5,0l-2.5,0l-4.5,0l-2.1,0l-1.1,0
		l-1.2-0.1l-0.5,0.1l-1,0l-6.3,0l-4.1,0l-0.3,0.1l-0.6,0l-3.5,0l-3.4-0.1l-0.9,0l-3.2,0l-1.6,0l-0.5,0l-0.5-0.2l-0.4-0.4l-1.8-2.1
		l-0.3-0.6l0-0.6l0.1-0.3l0.9-0.7l0.8-1.1l0.1-0.7l-0.2-1.1l-0.4-1l-0.6-0.7l-0.9-0.8l-1.1-1.2l-1.4-1.4l-1.8-1.6l-1.8-1.5l-0.5-0.5
		l-0.4-0.2l-1.1-0.8l-1.4-0.8l-0.6-0.2l-1.8-0.5l-1.9-0.3l-0.9-0.3l-0.7-0.4l-0.2-0.3l-0.3-1.3l-1.9-5.2l-0.2-0.2l-0.6-0.3l-1.6,0.1
		l-0.7,0.1l-0.8,0l-0.5-0.5l-0.3-0.6l-0.1-0.6l0.4-1.4l0.3-0.8l0.6-0.5l0.2-0.3l0.7-0.5l1-0.6l0.6-0.6l0.5-0.8l0.1-0.5l0-0.7
		l-0.2-1.8l0.2-0.5l0.8-1.3l0.1-0.4l0.2-0.5l-0.1-2.2l0.1-0.2l-0.1-1.6l0.1-0.5l0.1-0.7l0.2-1l0.4-0.6l2-1.6l0.4-0.7l0.2-0.4l0-1.3
		l-0.2-0.4l-0.9-0.7l-0.2-0.1l-1.3-0.4l-0.4-0.2l-1.2-1l-0.9-0.7l-0.3-0.5l-1.1-2l-0.5-1.8l0.1-0.7l-0.1-0.5l0.3-0.5l0.9-0.7
		l0.6-0.3l0.4-0.5l0.4-0.9l0.3-0.8l0.3-0.2l0.4-0.1l1.4,0l0.5,0.1l0.7,0l0.7-0.1l0.4-0.4l0.3-0.7l0.1-1.4l0.3-2.5l0.3-3l0.1-0.7
		l0.1-2l0-0.6l0.1-1.1l-2.4-3.5l-0.4-0.4l-0.8-1.2l-0.1-0.3l-0.6-0.8l-0.4-0.6l-0.1-0.5l0.3-1.2l0.3-0.7L73.3,345.4z M236.2,404.8
		l0.4,0.3l0.1,0.3l-0.2,0.3l-0.6-0.1l-0.4-0.2L236.2,404.8z M237.2,405.2l0.4,0.1l-0.4,0.2L237.2,405.2z M231.9,409.4v0.2l-0.3,0.2
		l-0.3-0.1l0.2-0.3L231.9,409.4z"/>
	<path id="lagoArgentino" class="st0" d="M73.3,345.4L74,344l0.1-0.5l-0.6-0.8l-0.6-0.3l-1.2-0.2l-1-1l-0.5-0.3l-0.6-0.1l-1.6,0.4
		l-0.6-0.1l-0.8-0.3l-1.2-0.8l-0.5-0.2l-0.6,0l-1.2,0.4l-1.5,0.7l-0.6,0.4l-0.4,0.3l-0.5,0.7l-1.3,1.9l-0.6,0.4l-0.3,0.1l-0.6-0.1
		l-0.9-0.4l-0.8-0.4l-1-0.8l-0.9-0.5l-0.3-0.4l-1.2-1.1l-0.6-0.3l-0.5-0.1l-0.9,0.5l-1.1,0.5l-0.6,0.2l-2.6,0.9l-1.1,0.6l-0.2,0.2
		l-1.4,1l-0.7,0.6l-1.1,0.9l-1.6,1.7l-1,0.9l-0.9,0.9l-1.8,1l-1.4,0.6l-0.8,0.3l-0.5,0.1l-1,0l-1-0.3l-0.9-0.5l-0.6-0.6l-0.2-0.7
		l-0.1-0.9l0.1-0.7l0.1-0.4l0.3-1.6l-0.1-0.4L30,345l-0.2-1l-0.3-0.9l-0.2-0.3l-2.1-1.7l-1-1.3l-0.4-1l-0.3-0.9l-0.1-1.2l-0.1-3.2
		l0.1-1.6l0.1-0.6l0.1-0.9l0-0.8l0.1-0.4l0-1.2l-0.6-3.1l-0.6-1.9l-0.7-1.7l-0.8-1.7l0-0.3l-0.7-1.2l-0.6-0.6l-0.8-0.7l-1.1-0.9
		l-1.9-1.4l-0.9-0.7l-0.9-0.5l-0.7-0.5l-1.2-0.7l-1.1-0.7l-0.9-0.8l-0.6-0.7l0-0.9l0.2-0.9l0.3-0.5l0.4-0.3l0-0.2l1.2-1.5l0.7-1.3
		l0.6-0.9l0.6-1.2l0.1-0.6l0.1-0.9l-0.2-0.6l-0.2-0.3l-1.1-1.1l-2-1.7l-1-1.1l-0.4-0.7l0-0.4l0.1-0.3l0.9-0.5l1-1l0.4-0.6l0-0.4
		l-0.5-0.7l-0.2-0.4l-0.1-0.6l0.7-1l0.7-0.7l0.5-0.4l0.9-0.4l0.9-0.5l0.7-0.6l0.1-0.3l-0.1-0.5l-1-1.7l-0.5-0.8l-0.6-0.6l-0.9-1.1
		l-1.1-1l-0.8-0.8l-0.3-0.6l-0.1-0.9l0.2-0.5l0.6-0.9l0.7-0.5l0.2-0.4l0.1-1l-0.4-1.4l-1.1-1.8l-0.7-0.7l-0.5-0.3l-0.9-0.6l-0.4-0.4
		l-0.2-0.7l0.1-0.4l0.2-0.4l1.8-1l0.6-0.5l0.4-1.1l0-0.9l-0.2-0.4l-0.2-0.8l0-0.8l0.2-0.5l0.4-0.6l0.7-0.7l1.2-0.9l0.5-0.5l0.5-1
		l0.2-0.6l-0.1-0.6l-0.6-1.2l-0.1-0.5l0-0.6l0.2-0.5l0.3-0.3l0.9-0.7l0.5-0.1l2.4,0l0.7,0l2.2,0l1.5,0l1.2,0l0.9,0l4.8,0l0.9-0.1
		l0.2-0.4l-0.1-1.5l0.1-0.3l1.4-0.1l0.3-0.1l0.6-0.1l0.1-0.5l-2.8-0.2l-0.8-0.1l-0.3-0.1l-0.3-0.4l-0.3-0.8l0-0.8l0.3-0.7l0.1-0.6
		l0.3-0.8l0.7-1.3l0.7-1.1l0.7-0.8l0.8-0.6l0.3-0.3l0.7-0.4l0.3-0.3l-0.1-0.5l-0.5-1.2l0-0.5l0.2-0.6l1.4-1.4l0.8-1l0.7-1.3l0.4-0.5
		l0.9-1.4l0.1-0.4l0.6-0.5l1.3-0.8l0.4-0.5l0.3-0.5l0.6-0.8l0.6-0.2l0.5,0l1.1,0.3L45,230l0.9-0.1l0.8-0.2l1.7-0.6l0.3,0l0.7-0.4
		l0.5-0.2l1.2-0.6l0.6-0.4l1.7-1.4l1.8-1.6l0.6-0.4l0.5-0.5l1-0.8l0.8-0.7l0.7-0.7l0.8-0.7l0.8-1.4l0.3-0.8l0-0.8l-0.3-1.9l-0.1-1.1
		l0-0.9l0.2-1l0.1-1l-0.2-2l-0.2-0.9l-0.3-1.5l-0.1-0.8l-0.3-0.6l-0.3-1.2l-0.3-0.9l-0.5-1.7l-0.3-1.5l0-2l0.2-0.5l0.5-0.4l30,24.9
		l29.1,23.6l21.3,0.4l19.6,0.3l-1.1,35.2l-0.2,6.1l-0.8,25.9l-0.5,0.4l-0.4,9.9l0.4,0.4l-0.8,24.1l-42.7-1.7L73.3,345.4z"/>
	<path id="lagoBuenosAires" class="st0" d="M94.4,115.9l0.6-0.5l0.4-0.8l0.1-0.7l0.3-1.1l0-0.9l-0.2-1.5l-0.3-1.1l-0.3-0.3l-0.2-0.4
		l-0.5-0.7l-0.5-0.4l-0.9-0.6l-1.5-0.7l-0.4-0.1l-0.7-0.3l-0.7-0.7l-0.4-1l-0.1-0.8l0.1-0.6l0.4-0.3l0.4-0.2l0.3,0l1.5-0.4l0.6-0.4
		l0.1-0.4l-0.1-0.8l-0.4-1.3l-0.2-1.2l-0.2-0.4l-0.7-0.8L90.6,96l0-0.7l0.2-1.5l0.2-1.1l0.2-0.5l0.7-1.1l0.2-0.4l-0.2-1l-0.3-0.7
		l-0.2-1.2l0.5-0.7l0.5-0.3l0.8-0.2l1.9,0l1.2-0.1l0.7-0.1l0.7-0.4l0.5-0.4l1.4-0.9l0.9-0.9l0.5-0.4l0.5-1l0.8-0.6l1.3-1l0.9-0.6
		l0.9-0.3l0.3-0.2l0.1-0.4l-0.1-0.5l-0.2-1l0.1-1l-0.1-0.8l-0.6-1.1l-0.2-0.9l-0.4-1l-0.1-0.5l0.4-1.8l0.2-1.3l-0.1-1.4l0.1-0.3
		l-1.7-3.4l-0.5-1.5l-0.1-0.5l-0.4-1.1l-0.2-1.3l-0.2-0.5l-0.4-1.8l-0.1-1.9l0.1-2.5l-0.2-1l0-0.6l-0.3-0.9l-0.6-1.1l-0.4-0.5
		l-0.5-0.4l-0.3-0.2l-0.8-0.6L97,46.8l-0.2,0l-0.9-0.3l-0.3-0.3L95,45.4l-0.6-0.7l-1-1.1l0.1-0.6l0.2-0.2l0.7-0.2l0.9-0.2l0.5,0
		l0.7-0.2l1-0.3l0.6-0.1l0.8-0.3l0.2-0.2l0.9-0.6l0.9-0.7l0.8-0.8l0.8-1.8l0.6-0.8l0.4-0.6l0.9-1l0.3-0.4l0.6-0.7l0.3-0.2l5-0.4
		l5.4,0l10.1,0l11.1-0.1l9.5,0l6.1,0l9,0l0.4,0l0.8,0.1l5.2,0.1l10.3,0.2l10.3,0.1l10.3,0.1l5.9,0L204.7,50l-0.3,16.3l-0.9,44.5
		l-1,4.9l-0.1,4.4l-1.3,68l-2.4-1l-23.3-30.8l-25.9-35l-40.1,2.9L94.4,115.9z"/>
	<path id="magallanes" class="st0" d="M303.9,262.9l-50.6,0.7l-6.7,0l-0.2-9.2l-46.5,0.1l-0.2,0l0.2-7.3l1-48.1l0.2-10.9l18.9,7.7
		l18.1-1.3l16.5-1.3L271,192l7.5,4.3l28.4-23.5l1.4,1.4l1.7,0l15.3,19.9l3.7,4.8l14.6,6.4l0.4-0.2l0.1,0.6l-0.3,0.5l-1.1,0.5l-0.4,0
		l-0.4,0.2l-0.5,0.1l-0.5-0.1l-1.2,0l-1.2,0.3l-0.6,0.2l-1.1,0.7l-0.4,0.5l0,0.4l-0.9,0.6l-1.1,0.3l-0.7,0.6l-0.3,0.3l-0.9,0.5
		l-0.5,0.2l-0.8,0.5l-0.3,0.4l-0.4,0.7l0.1,0.4l-0.1,0.2l-0.2,1l-0.2,0.4l-0.1,1.4l-0.5,0.4l-0.3,0.1l-0.9,0.9l-0.3,0.6l-0.2,0.5
		l0.1,0.6l-0.3,0.4l0,0.5l0.3,0.3l-1.1,1l-0.1,0.5l-0.3,0.3l-0.6,0.3l-0.7,0.7H325l-0.9,0.2l-1.7,0.6l-1.3,0.6l-1.3,0.8l-0.7,0.5
		l-2.1,1.3l-1.3,1.1l-1.1,0.9l-1.4,1.2L313,231l0,0.4l-1.8,2.1l-0.5,0.3l-0.6,0.6l-0.6,0.9l-0.2,0.2l-0.3,0.5l-0.2,0.8l-0.1,0.1
		l-0.1,0.8l-0.5,1.5l-0.3,0.3l0,0.6l-0.1,0.3l-0.6,0.2l-0.5,0.4l-0.5,0.8l-0.3,0.7l0,0.6l0.2,0.5l0.9,0.2l-0.2,0.3l0.1,0.6l0.3,0.3
		v0.2l-0.4,0.6l-0.3,0.1l-0.5,0.5l-0.5,0l-0.5,0.1l-0.2,0.2h-0.2l-0.1,0.3l-0.1,0.6L304,248l0.4,1.4l-0.1,0.3l-0.3,0.1l0.3,0.4
		l1.2,0.1l0.4-0.3h0.3l0.7-0.2l0.2,0l0.2,0.7l0,0.6l0.3,0.5l0,0.8l0,0.6l-0.2,0.6l-0.2,0.3l-0.5,1.2l-0.1,0.6l-0.2,0.9l-0.2,0.6
		l-0.7,1.2v0.2l-0.6,0.9l-0.4,0.9l-0.1,0.9l-0.2,0.7v0.3L303.9,262.9z"/>
	<path id="rioChico" class="st0" d="M58.8,197.8l0.5-0.3l1.6-1.1l0.7-0.3l0.7-0.6l0.7-0.8l0.8-0.3l1.3,0.1l1-0.1l1.9-0.8l0.3-0.2
		l0.4-0.9l0.1-0.7l0.2-0.6l0.5-0.6l0.5-0.3l0.4-0.1l0.6,0l1,0.5l0.4,0.1l0.5,0l0.3-0.2l0.1-0.4l-0.8-2.1l-0.2-0.4l-0.5-0.7l-0.1-0.6
		l0.1-0.5l0.9-2.3l0-0.9l-0.2-3.7l-0.1-0.9l-0.2-0.7l-0.6-1.5l-0.1-0.7l0.1-0.6l-0.1-1.2l0.1-0.7l-0.2-0.9l-0.7-0.4l-0.7,0l-0.7-0.1
		l-0.5-0.4l-0.4-0.7l-0.3-1.3l-0.1-0.6l-0.5-0.9l-1-0.4l-0.5-0.2l-0.2-0.3l-1.8-1.8l-1.4-1.5L62,162l-0.2-1.1l0-0.4l0.4-1.1l0.6-0.8
		l0.6-0.8l0.6-0.6l0.4-0.6l0-0.2l0.9-3.2l0.3-0.8l0.6-1.3l0-0.2l0.4-1l0.8-1.7l0.7-1.2l0.9-1.7l0.4-0.7l1.1-1.8l1.1-1.4l0.3-0.6
		l0.5-0.9l0.2-0.6l0-1l0.7-2.1l0.2-0.9l0-1.7l-0.3-0.5l-0.4-0.3l-1.3-0.5l-0.4-0.5l0-0.9l0.3-0.9l0.5-1l0.4-0.4l0.7-0.4l1.2-0.4
		l1.6-0.3l0.8-0.1l0.8-0.3l0.6,0l1.1,0.6l0.7,0.1l0.7-0.2l0.4-0.2L81,127l0.1-0.4l0.6-1.4l0.1-0.4l0.5-0.4l1.5-0.9l0.9-0.9l0.4-0.9
		l0.6-1l1.1-1.2L87,119l0.4-1l0.1-0.4l-0.2-1.1l-0.5-1l-0.2-0.7l0-0.4l0.2-0.5l0.7-0.4l0.6,0.1l0.7,0.3l0.5,0.4l0.4,0l0.5,0.3
		l0.1,0.2l1.4,0.8l0.6,0.2l1.1,0.4l0.6,0l0.5-0.2l14.9,8.5l40.1-2.9l25.9,35l23.3,30.8l2.4,1l-0.2,10.9l-1,48.1l-34.1-0.2l-7-0.1
		l-19.6-0.3l-21.3-0.4l-29.1-23.6L58.8,197.8z"/>
</g>
</svg>
